<svg width="25" height="25" viewBox="0 0 25 25" fill="none" xmlns="http://www.w3.org/2000/svg">
<path d="M12.5 1.5625C6.45996 1.5625 1.5625 6.45996 1.5625 12.5C1.5625 18.54 6.45996 23.4375 12.5 23.4375C18.54 23.4375 23.4375 18.54 23.4375 12.5C23.4375 6.45996 18.54 1.5625 12.5 1.5625ZM12.5 21.582C7.48535 21.582 3.41797 17.5146 3.41797 12.5C3.41797 7.48535 7.48535 3.41797 12.5 3.41797C17.5146 3.41797 21.582 7.48535 21.582 12.5C21.582 17.5146 17.5146 21.582 12.5 21.582Z" fill="#23356B"/>
<path d="M16.7651 15.5908L13.2837 13.0737V7.03125C13.2837 6.92383 13.1958 6.83594 13.0884 6.83594H11.9141C11.8066 6.83594 11.7188 6.92383 11.7188 7.03125V13.7549C11.7188 13.8183 11.748 13.8769 11.7993 13.9136L15.8374 16.8579C15.9253 16.9214 16.0474 16.9018 16.1108 16.8164L16.8091 15.8642C16.8725 15.7739 16.853 15.6518 16.7651 15.5908Z" fill="#23356B"/>
</svg>
