<svg width="22" height="22" viewBox="0 0 22 22" fill="none" xmlns="http://www.w3.org/2000/svg">
<path d="M0.806641 9.4395C0.817392 9.40672 0.838893 9.3794 0.844269 9.34662C1.03778 8.56529 1.63983 8.05169 2.43002 8.02437C2.98907 8.00798 3.54274 8.01891 4.10178 8.01891C4.3383 8.01891 4.49419 8.16097 4.49957 8.36313C4.50494 8.57076 4.34368 8.71828 4.09641 8.72374C3.58574 8.72921 3.07508 8.72374 2.56441 8.72374C1.87635 8.72921 1.4947 9.11714 1.4947 9.81651C1.4947 13.2314 1.4947 16.6463 1.4947 20.0612C1.4947 20.7496 1.87635 21.143 2.54828 21.1485C3.4191 21.154 4.2953 21.154 5.16612 21.1485C5.8273 21.143 6.20896 20.7496 6.20896 20.0721C6.20896 16.6736 6.20896 13.2696 6.20896 9.87115C6.20896 9.45043 6.30034 9.33569 6.71425 9.35755C7.42918 9.39579 7.94522 9.10621 8.33225 8.49426C8.76766 7.81128 9.27296 7.16655 9.57398 6.40161C9.89113 5.6039 10.0739 4.77886 10.0793 3.91557C10.0846 3.42383 10.0793 2.93208 10.0793 2.4458C10.0846 1.32026 11.0522 0.664596 12.0843 1.08531C13.7668 1.77375 14.8634 3.41837 14.8688 5.25968C14.8688 5.55472 14.8742 5.84431 14.8688 6.13935C14.8634 6.36337 14.7237 6.51636 14.5355 6.52182C14.3366 6.52728 14.1969 6.36883 14.1861 6.13389C14.1539 5.54926 14.1861 4.9537 14.0625 4.39093C13.7829 3.11786 12.9981 2.23271 11.8102 1.73004C11.2511 1.4951 10.7888 1.812 10.7835 2.42941C10.7781 3.00311 10.7888 3.57682 10.7673 4.14505C10.7136 5.58204 10.262 6.8879 9.4611 8.07355C9.23533 8.40684 9.00956 8.73467 8.78379 9.0625C8.35376 9.68538 7.77321 10.0187 7.02065 10.0405C6.99377 10.0405 6.96689 10.046 6.94002 10.0515C6.93464 10.0515 6.92927 10.0569 6.90239 10.0842C6.90239 10.1443 6.90239 10.2263 6.90239 10.3083C6.90239 13.5647 6.90239 16.8211 6.90239 20.083C6.90239 20.9573 6.42397 21.602 5.63916 21.8041C5.54778 21.826 5.45639 21.8479 5.37039 21.8697C4.35981 21.8697 3.3546 21.8697 2.34402 21.8697C2.30101 21.8588 2.25801 21.8369 2.20963 21.8315C1.62371 21.7277 1.2098 21.3998 0.957153 20.8589C0.892648 20.7278 0.860395 20.5803 0.812016 20.4382C0.806641 16.7774 0.806641 13.1112 0.806641 9.4395Z" fill="#D2B48C"/>
<path d="M21.4482 10.2209C21.3569 10.3629 21.2601 10.4886 21.0666 10.4667C20.8677 10.4449 20.7548 10.3083 20.7602 10.0679C20.7656 9.6417 20.6151 9.29748 20.2764 9.04614C20.056 8.88223 19.8034 8.83852 19.5346 8.83852C17.9273 8.83852 16.3255 8.83852 14.7182 8.83852C14.6537 8.83852 14.5838 8.83852 14.5193 8.83305C14.3204 8.81666 14.1968 8.68007 14.1968 8.48883C14.1968 8.30306 14.3258 8.161 14.5193 8.13915C14.5784 8.13368 14.6376 8.13915 14.7021 8.13915C16.2878 8.13915 17.8736 8.13915 19.454 8.13915C20.5237 8.13915 21.1365 8.6145 21.4267 9.66355C21.4321 9.67448 21.4429 9.68541 21.4536 9.69087C21.4482 9.86572 21.4482 10.0406 21.4482 10.2209Z" fill="#D2B48C"/>
<path d="M20.2006 14.7721C20.765 15.313 20.9908 15.9523 20.8134 16.7063C20.636 17.4603 20.1522 17.9302 19.448 18.1433C19.5394 18.3782 19.6576 18.5913 19.706 18.8153C19.9318 19.8862 19.1524 20.8369 18.0611 20.8424C16.0937 20.8479 14.1263 20.8479 12.1589 20.8479C11.0516 20.8479 9.94423 20.8533 8.83151 20.8533C8.79388 20.8533 8.75088 20.8533 8.71325 20.8533C8.41223 20.8533 8.26709 20.7441 8.26709 20.5091C8.26709 20.2796 8.4176 20.154 8.70788 20.154C9.3583 20.154 10.0087 20.154 10.6645 20.154C13.0942 20.1485 15.5293 20.143 17.959 20.1376C18.2762 20.1376 18.5772 20.0829 18.803 19.8261C19.0663 19.5256 19.1362 19.1705 18.9911 18.7989C18.8298 18.4001 18.5181 18.1979 18.0934 18.1925C17.4913 18.1815 16.8839 18.1925 16.2819 18.187C16.0561 18.187 15.9163 18.0449 15.9163 17.8428C15.9163 17.6406 16.0615 17.504 16.2872 17.4931C16.341 17.4931 16.3948 17.4931 16.4485 17.4931C17.2763 17.4931 18.0988 17.4931 18.9266 17.4931C19.0395 17.4931 19.1524 17.4822 19.2652 17.4548C19.8189 17.3292 20.2113 16.7992 20.1898 16.2036C20.1737 15.6135 19.7437 15.1163 19.1739 15.0289C19.0556 15.0125 18.932 15.0016 18.8137 15.0016C18.3353 14.9961 17.8623 15.0016 17.3838 14.9961C17.1688 14.9961 17.0344 14.8595 17.0291 14.6628C17.0237 14.4607 17.1634 14.3186 17.3838 14.3022C17.4376 14.2967 17.4913 14.3022 17.5451 14.3022C18.131 14.3022 18.7116 14.3077 19.2975 14.3022C19.9533 14.2913 20.464 13.7613 20.4855 13.0783C20.507 12.4609 20.0286 11.909 19.405 11.8326C19.3136 11.8216 19.2169 11.8162 19.1255 11.8162C18.5664 11.8162 18.0128 11.8162 17.4537 11.8162C17.1742 11.8162 17.0237 11.6905 17.0237 11.4665C17.0237 11.2425 17.1796 11.1113 17.4483 11.1113C18.045 11.1113 18.6417 11.1113 19.2437 11.1113C19.3351 11.1113 19.4319 11.1223 19.5233 11.1386C20.3242 11.2643 20.9478 11.838 21.1251 12.6084C21.3079 13.4116 21.0015 14.2039 20.3242 14.6792C20.2758 14.712 20.2436 14.7393 20.2006 14.7721Z" fill="#D2B48C"/>
</svg>
