<svg width="17" height="21" viewBox="0 0 17 21" fill="none" xmlns="http://www.w3.org/2000/svg">
<path d="M1.21182 20.8204C1.06568 20.723 0.890302 20.6451 0.778257 20.5136C0.675956 20.3919 0.641855 20.2165 0.59314 20.0607C0.573654 20.0023 0.588269 19.9341 0.588269 19.8659C0.588269 14.285 0.593141 8.70888 0.583398 3.12793C0.583398 2.38283 0.846458 1.77896 1.44078 1.32605C1.80127 1.04847 2.21535 0.912109 2.6684 0.912109C3.88627 0.912109 5.10414 0.912109 6.32202 0.912109C9.1621 0.912109 12.0022 0.912109 14.8374 0.912109C15.7922 0.912109 16.5521 1.53546 16.7421 2.47049C16.7665 2.60198 16.7714 2.74321 16.7714 2.87469C16.7714 4.93955 16.7714 7.00927 16.7714 9.07412C16.7714 9.12769 16.7714 9.17639 16.7665 9.22996C16.7421 9.39554 16.635 9.48807 16.4791 9.48807C16.3183 9.48807 16.216 9.39067 16.1917 9.22509C16.1819 9.16178 16.1868 9.0936 16.1868 9.03029C16.1868 6.98979 16.1868 4.94929 16.1868 2.90878C16.1868 2.2416 15.8653 1.76922 15.2758 1.56468C14.4915 1.29196 13.6293 1.86175 13.5757 2.68964C13.5708 2.80164 13.5659 2.90878 13.5659 3.02079C13.5659 6.62941 13.5659 10.238 13.5659 13.8467C13.5659 13.9294 13.5659 14.0122 13.5659 14.1048C13.6487 14.1096 13.7023 14.1145 13.7608 14.1145C14.472 14.1145 15.1881 14.1145 15.8994 14.1145C16.1576 14.1145 16.1868 14.0853 16.1868 13.8223C16.1868 12.7217 16.1868 11.6211 16.1868 10.5156C16.1868 10.4572 16.1819 10.3987 16.1917 10.3403C16.2209 10.1796 16.3183 10.0822 16.4839 10.0822C16.6496 10.0822 16.747 10.1796 16.7714 10.3452C16.7811 10.4036 16.7762 10.4621 16.7762 10.5205C16.7762 11.6211 16.7568 12.7217 16.7811 13.8272C16.7957 14.4457 16.3719 14.7281 15.8994 14.7135C15.1979 14.6892 14.5013 14.7086 13.7998 14.7086C13.7316 14.7086 13.6585 14.7086 13.5659 14.7086C13.5659 14.8012 13.5659 14.8791 13.5659 14.9521C13.5659 16.5592 13.5562 18.1663 13.5708 19.7734C13.5757 20.275 13.4149 20.6451 12.918 20.8155C9.01595 20.8204 5.11389 20.8204 1.21182 20.8204ZM13.4734 1.50137C13.3954 1.50137 13.3565 1.50137 13.3175 1.50137C9.80513 1.50137 6.29279 1.50137 2.78044 1.50624C2.61968 1.50624 2.45405 1.52572 2.30303 1.56468C1.57231 1.76435 1.17285 2.33413 1.17285 3.15228C1.17285 8.70888 1.17285 14.2703 1.17285 19.8269C1.17285 20.1824 1.22643 20.2311 1.57231 20.2311C5.23567 20.2311 8.89416 20.2311 12.5575 20.2311C12.9278 20.2311 12.9667 20.1922 12.9667 19.8172C12.9667 14.5966 12.9619 9.37119 12.9619 4.15062C12.9619 3.79998 12.957 3.44935 12.9716 3.10358C12.9911 2.66529 12.9765 2.21725 13.2444 1.83253C13.3126 1.73026 13.3808 1.63286 13.4734 1.50137Z" fill="#D2B48C"/>
<path d="M8.68033 17.7076C7.78885 17.7076 6.8925 17.7076 6.00101 17.7076C5.94256 17.7076 5.8841 17.7076 5.82564 17.7076C5.64539 17.693 5.52848 17.5762 5.53335 17.4106C5.53822 17.2547 5.65027 17.1379 5.8159 17.1233C5.85974 17.1184 5.90845 17.1233 5.9523 17.1233C7.77911 17.1233 9.60592 17.1233 11.4327 17.1233C11.4522 17.1233 11.4717 17.1233 11.4912 17.1233C11.7299 17.1281 11.8712 17.2401 11.8663 17.4203C11.8614 17.5956 11.725 17.7028 11.5009 17.7076C11.4376 17.7076 11.3694 17.7076 11.3061 17.7076C10.4292 17.7076 9.55233 17.7076 8.68033 17.7076Z" fill="#D2B48C"/>
<path d="M8.69921 7.331C9.61018 7.331 10.526 7.331 11.437 7.331C11.5149 7.331 11.6124 7.32126 11.6611 7.36509C11.7439 7.43814 11.8364 7.54528 11.8462 7.64755C11.8608 7.77903 11.7634 7.89104 11.6124 7.91052C11.5442 7.92026 11.4711 7.92513 11.398 7.92513C9.59069 7.92513 7.78337 7.92513 5.97604 7.92513C5.91271 7.92513 5.84451 7.92513 5.78118 7.91539C5.62529 7.89591 5.53274 7.80825 5.52299 7.65242C5.50838 7.48684 5.60094 7.38457 5.75682 7.34561C5.82015 7.331 5.88348 7.33587 5.95168 7.33587C6.8724 7.331 7.78824 7.331 8.69921 7.331Z" fill="#D2B48C"/>
<path d="M8.71896 13.8418C9.6007 13.8418 10.4824 13.8418 11.3593 13.8418C11.4129 13.8418 11.4616 13.8418 11.5152 13.8418C11.7247 13.8515 11.8562 13.9635 11.8611 14.134C11.8659 14.3093 11.7247 14.4359 11.5054 14.4359C10.7796 14.4408 10.0537 14.4359 9.32789 14.4359C8.20745 14.4359 7.08701 14.4359 5.96656 14.4359C5.89349 14.4359 5.82042 14.4359 5.75709 14.4213C5.60607 14.3824 5.52326 14.285 5.533 14.1242C5.54274 13.9684 5.63043 13.8759 5.78632 13.8515C5.85452 13.8418 5.92759 13.8418 6.00066 13.8418C6.90189 13.8418 7.81286 13.8418 8.71896 13.8418Z" fill="#D2B48C"/>
<path d="M7.80334 11.2075C7.18953 11.2075 6.57572 11.2075 5.95705 11.2075C5.8791 11.2075 5.78167 11.2172 5.73296 11.1783C5.65014 11.1052 5.54297 10.9981 5.54297 10.9056C5.54297 10.813 5.65014 10.7059 5.73783 10.6377C5.78654 10.5988 5.88884 10.6085 5.96192 10.6085C7.19928 10.6085 8.43664 10.6085 9.66912 10.6085C9.70322 10.6085 9.73245 10.6085 9.76655 10.6085C9.9809 10.6231 10.1076 10.7303 10.1124 10.9007C10.1173 11.0809 9.98577 11.2026 9.76168 11.2075C9.35247 11.2124 8.94814 11.2075 8.53894 11.2075C8.29536 11.2075 8.05179 11.2075 7.80334 11.2075Z" fill="#D2B48C"/>
<path d="M4.51962 14.1529C4.51475 14.7032 4.0617 15.1464 3.50635 15.1415C2.95587 15.1367 2.50282 14.674 2.51743 14.1286C2.52718 13.5783 2.99484 13.1205 3.53071 13.1351C4.08606 13.1448 4.51962 13.5977 4.51962 14.1529ZM3.52583 13.739C3.29687 13.7341 3.11663 13.9143 3.11663 14.1383C3.11663 14.3623 3.30662 14.5523 3.52583 14.5474C3.73531 14.5474 3.9253 14.3623 3.93017 14.1529C3.93504 13.9338 3.74505 13.739 3.52583 13.739Z" fill="#D2B48C"/>
<path d="M4.51962 10.9244C4.51475 11.4698 4.05195 11.9227 3.50634 11.913C2.96074 11.9033 2.50282 11.4358 2.51743 10.8952C2.53204 10.3449 2.99484 9.89198 3.53557 9.90659C4.08605 9.91633 4.51962 10.3692 4.51962 10.9244ZM3.51122 10.5056C3.28226 10.5105 3.10688 10.6955 3.11662 10.9195C3.12637 11.1338 3.30661 11.3091 3.52096 11.3091C3.74018 11.3091 3.93504 11.1143 3.93017 10.9001C3.92529 10.6809 3.73531 10.5007 3.51122 10.5056Z" fill="#D2B48C"/>
<path d="M3.52602 16.4219C4.08137 16.4268 4.5198 16.8699 4.5198 17.4251C4.5198 17.9803 4.07162 18.4186 3.51627 18.4186C2.96092 18.4137 2.51275 17.9608 2.51762 17.4154C2.52249 16.8602 2.97067 16.417 3.52602 16.4219ZM3.93035 17.4105C3.92548 17.1962 3.72575 17.0014 3.5114 17.0112C3.29219 17.0209 3.10707 17.2157 3.11681 17.4349C3.12655 17.6491 3.31167 17.8293 3.52115 17.8293C3.73549 17.8245 3.93522 17.6248 3.93035 17.4105Z" fill="#D2B48C"/>
<path d="M4.51992 7.63795C4.51505 8.18825 4.05713 8.64116 3.51152 8.63142C2.96104 8.62168 2.50799 8.15903 2.51773 7.61847C2.52748 7.06817 2.97565 6.625 3.531 6.625C4.07661 6.63474 4.51992 7.08278 4.51992 7.63795ZM3.51639 8.03241C3.74048 8.03241 3.93047 7.84736 3.93047 7.62821C3.93047 7.41393 3.73074 7.21913 3.51639 7.224C3.30204 7.22887 3.1218 7.40906 3.11693 7.62334C3.10718 7.84735 3.28743 8.03241 3.51639 8.03241Z" fill="#D2B48C"/>
<path d="M3.54022 3.35173C4.10531 3.36634 4.52913 3.81924 4.51452 4.38902C4.4999 4.92958 4.04685 5.35327 3.4915 5.34353C2.94102 5.33379 2.49285 4.86627 2.51233 4.32571C2.53669 3.77054 2.98487 3.34199 3.54022 3.35173ZM3.52073 4.75914C3.73508 4.75914 3.93481 4.55947 3.92994 4.34519C3.92506 4.13091 3.72533 3.93612 3.51099 3.94099C3.29664 3.94586 3.1164 4.12604 3.1164 4.34519C3.11152 4.56921 3.30151 4.75914 3.52073 4.75914Z" fill="#D2B48C"/>
<path d="M9.56693 4.64689C8.93364 4.64689 8.30035 4.64689 7.66218 4.64689C7.40399 4.64689 7.27246 4.54462 7.27246 4.34983C7.27246 4.1599 7.40399 4.0625 7.65244 4.0625C8.93364 4.0625 10.2148 4.0625 11.496 4.0625C11.7835 4.0625 11.9588 4.29139 11.8127 4.49105C11.7494 4.57871 11.5983 4.63715 11.4863 4.64202C10.8481 4.65176 10.2051 4.64689 9.56693 4.64689Z" fill="#D2B48C"/>
<path d="M11.2575 11.2115C11.165 11.2067 11.0529 11.2067 10.9457 11.1872C10.7947 11.158 10.707 11.0557 10.707 10.8999C10.7119 10.7489 10.7947 10.632 10.9506 10.6223C11.1698 10.6077 11.389 10.6077 11.6083 10.6223C11.7641 10.632 11.8518 10.7489 11.8567 10.8999C11.8616 11.0606 11.7641 11.1677 11.6034 11.1921C11.4962 11.2116 11.3842 11.2067 11.2575 11.2115Z" fill="#D2B48C"/>
<path d="M6.10764 4.6425C6.00534 4.6425 5.89817 4.65224 5.79586 4.6425C5.63023 4.62789 5.51819 4.50128 5.52793 4.34544C5.53768 4.17986 5.63023 4.07759 5.79586 4.06785C6.00047 4.05811 6.20994 4.05811 6.41454 4.06785C6.58505 4.07759 6.67273 4.19934 6.67273 4.35518C6.67273 4.51102 6.58017 4.62302 6.41454 4.6425C6.31224 4.65224 6.20994 4.6425 6.10764 4.6425Z" fill="#D2B48C"/>
</svg>
