<svg width="11" height="26" viewBox="0 0 11 26" fill="none" xmlns="http://www.w3.org/2000/svg">
<path d="M0.586138 26.0004C0.522797 25.8466 0.407163 25.6928 0.40348 25.539C0.285145 20.4396 0.173439 15.3399 0.0683613 10.24C0.0396368 8.86169 -0.034752 7.48032 0.0190143 6.1051C0.0926668 4.25916 0.266487 2.41323 0.399061 0.567291C0.404954 0.490377 0.430732 0.418846 0.43957 0.343471C0.468295 0.0965768 0.602342 0.000432988 0.836557 0.00197127C1.61433 0.00812439 2.3921 0.00197127 3.16987 0.00197127H10.0004C10.4725 0.00197127 10.5314 0.0204318 10.6044 0.521142C10.7244 1.33797 10.8297 2.16018 10.8886 2.98239C11.1229 6.21278 10.9203 9.44316 10.8724 12.6736C10.8334 15.3209 10.7583 17.9675 10.7016 20.6149C10.6662 22.2724 10.6382 23.9299 10.5926 25.5874C10.5889 25.7266 10.474 25.862 10.4106 25.9989H6.27653C6.21466 25.8451 6.10787 25.6912 6.09756 25.5305C6.0622 24.9736 6.05852 24.4152 6.04379 23.8568C5.94166 19.9255 5.83854 15.9944 5.73445 12.0636C5.71481 11.3114 5.68387 10.5597 5.64165 9.80851C5.62544 9.51239 5.56799 9.21858 5.52969 8.924H5.46562C5.42732 9.22781 5.36766 9.53008 5.35514 9.83466C5.29916 11.2032 5.25129 12.572 5.21152 13.9411C5.10619 17.8045 5.01044 21.6686 4.89997 25.532C4.89555 25.6859 4.78286 25.8397 4.72025 25.9997L0.586138 26.0004ZM0.665683 4.09457C0.642851 5.15905 0.59203 6.20739 0.604551 7.25419C0.624438 9.09397 0.68336 10.9399 0.723869 12.7858C0.809797 16.9043 0.894497 21.0231 0.97797 25.1421C0.97797 25.219 0.988281 25.2898 0.994174 25.3728H4.30264C4.31001 25.2882 4.32032 25.219 4.32179 25.1559C4.39004 22.6193 4.4583 20.0824 4.52655 17.5453C4.59283 15.084 4.64439 12.6228 4.73425 10.1615C4.76592 9.30241 4.87492 8.44405 5.16732 7.62338C5.19571 7.52708 5.20792 7.42637 5.20341 7.32572C5.20341 5.57516 5.20341 3.82408 5.20341 2.0725V1.78715C4.72541 1.78715 4.28128 1.78253 3.8379 1.79407C3.78708 1.79407 3.723 1.88098 3.69059 1.94251C3.58158 2.16018 3.33117 2.21248 3.19417 2.03019C3.15072 1.96024 3.1149 1.88542 3.08738 1.80714H2.30371C2.19545 2.90471 1.85664 3.80845 0.665683 4.09457ZM10.0196 25.3805C10.0196 25.2105 10.0196 25.0682 10.0196 24.926C10.0569 23.0231 10.0949 21.1202 10.1337 19.2174C10.2236 15.0479 10.3245 10.8791 10.4011 6.70964C10.4173 5.83282 10.348 4.95523 10.3186 4.08995C9.14014 3.79614 8.81018 2.88471 8.69823 1.80022H7.9013L7.94181 1.86098C7.83207 1.95251 7.73485 2.09172 7.60964 2.12557C7.43656 2.1771 7.33271 2.04865 7.28778 1.8656C7.27894 1.83022 7.20381 1.79407 7.15741 1.78868C7.00643 1.77945 6.8547 1.78868 6.67794 1.78868V2.09249C6.67425 3.03084 6.68457 3.97073 6.661 4.90908C6.64627 5.5044 6.44593 6.01588 5.89133 6.302C5.85376 6.32123 5.80147 6.36968 5.80221 6.40429C5.80736 6.81655 5.74108 7.25419 5.85082 7.63492C6.08906 8.45983 6.22858 9.31236 6.26622 10.1731C6.33987 11.8713 6.37301 13.5711 6.41868 15.2709C6.50657 18.5526 6.59275 21.8343 6.6772 25.1159C6.6772 25.2044 6.69193 25.2921 6.70003 25.3805H10.0196ZM7.88363 1.15953H10.116C10.0792 0.971088 10.0424 0.800339 10.0122 0.631128H7.88363V1.15953ZM0.913893 1.15953H3.09401V0.633436H0.99491C0.969868 0.807261 0.9463 0.972625 0.919785 1.15645L0.913893 1.15953ZM9.31911 1.80176C9.29555 2.5709 9.75366 3.3785 10.2766 3.38311C10.2589 3.1216 10.2405 2.86086 10.2236 2.60089C10.2066 2.34093 10.1919 2.06865 10.1757 1.80176H9.31911ZM0.734181 3.40234C1.31604 3.25851 1.73364 2.53552 1.67988 1.7933H0.858653C0.817408 2.32554 0.776899 2.85471 0.734181 3.40234ZM5.81031 1.78715V5.619C6.04526 5.30288 6.08209 4.98984 6.08282 4.66988C6.08282 3.7746 6.08282 2.87932 6.08282 1.98482C6.08282 1.92021 6.07104 1.8556 6.06441 1.78715H5.81031ZM3.72373 1.14876H5.19163V0.624206H3.72373V1.14876ZM7.27231 0.624206H6.40689V1.14953H7.27231V0.624206ZM5.90753 1.17183V0.614977C5.67994 0.646512 5.82504 0.860332 5.79632 0.986471C5.77128 1.09492 5.78085 1.21567 5.90753 1.17183Z" fill="#D2B48C"/>
</svg>
