<svg width="17" height="23" viewBox="0 0 17 23" fill="none" xmlns="http://www.w3.org/2000/svg">
<path fill-rule="evenodd" clip-rule="evenodd" d="M10.3379 16.1257C10.1062 16.073 9.88641 15.9801 9.68796 15.9076C9.46655 15.8267 9.24997 15.7697 9.05135 15.6765C9.09276 15.5248 9.25171 15.3807 9.35356 15.2531C9.49357 15.0779 10.293 14.1333 10.3379 13.9692C10.4785 14.0613 10.7779 14.2875 10.9351 14.3286C10.9308 14.5183 10.7213 15.0281 10.646 15.214L10.3379 16.1257ZM15.7595 18.9563C15.7595 19.3894 16.2648 21.1811 16.2648 21.7419C16.2648 22.2104 15.9157 22.3261 15.4378 22.3261H13.8297V19.1361C13.8297 18.6568 13.1405 18.7802 13.1405 19.0911V22.3261H6.7081C6.25335 22.3261 6.25335 23 6.7081 23H15.7135C16.4716 23 17 22.4288 17 21.6971C17 21.4249 16.7661 20.3962 16.6975 20.0608C16.5795 19.4841 16.5286 18.6418 16.127 18.6418C15.9304 18.6418 15.7595 18.7803 15.7595 18.9563ZM6.06488 14.3735C6.23897 14.2595 6.51432 14.0477 6.66214 14.0141L7.56161 15.2462C7.67232 15.3959 7.77564 15.5265 7.85677 15.6765L6.7081 16.1257C6.50406 15.7487 6.1841 14.6344 6.06488 14.3735ZM7.07565 13.0705C7.66961 13.2058 7.80533 13.2952 8.54596 13.2952C8.97896 13.2952 9.64221 13.2029 9.92435 13.0705C9.92435 13.2368 9.9479 13.314 9.88609 13.4375L8.88074 14.7009C8.7677 14.8499 8.5451 15.062 8.5 15.2272C8.31088 15.1778 7.82796 14.4108 7.70597 14.2514C7.2956 13.7149 7.07565 13.5359 7.07565 13.0705ZM4.64053 8.84716V6.60068C4.64053 6.43469 5.06213 6.35074 5.37715 5.74843C5.99992 4.55772 4.88245 4.42372 7.04217 4.70147C7.26537 4.73018 7.46741 4.7063 7.69234 4.73958L11.2108 4.57884C11.4168 4.57884 11.412 4.93147 11.4371 5.12134C11.5808 6.20937 12.3595 6.37159 12.3595 6.60068V9.02684C12.3595 10.7945 10.6141 12.5763 8.72971 12.5763C7.69641 12.5763 7.07913 12.4383 6.25682 11.8944L5.73016 11.4659C5.64453 11.3785 5.60149 11.3106 5.52405 11.2181C5.44792 11.1273 5.39284 11.059 5.32234 10.9661C4.9206 10.4363 4.64053 9.59078 4.64053 8.84716ZM13.0946 8.03842V6.73547C13.41 6.7611 13.6655 7.06857 13.6774 7.36994C13.6956 7.83241 13.2231 7.97193 13.0946 8.03842ZM3.90543 6.73547V8.03842C3.62053 7.891 3.36135 7.80981 3.32955 7.3978C3.30654 7.09988 3.59985 6.76031 3.90543 6.73547ZM4.18111 2.06278C4.18111 2.30503 4.35145 2.42221 4.54866 2.42221C4.81413 2.42221 5.12921 2.0085 5.29434 1.84845C5.47603 1.67237 5.85796 1.41325 6.09576 1.28424C7.71063 0.407952 10.0848 0.551763 11.5221 1.71345C11.7867 1.92725 11.9467 2.08587 12.1878 2.32042C13.2035 3.30853 13.4162 4.61609 13.4162 6.06152L12.8698 5.96675C12.3973 5.8993 12.1683 5.26419 12.1225 4.81053C11.975 3.34981 10.41 4.04313 9.42037 4.04106C9.21784 4.04064 8.93565 4.06844 8.82745 4.06574C8.70399 4.06271 8.43651 4.03915 8.22438 4.03963C7.18446 4.04186 6.43813 3.85994 5.7892 3.85994C5.50506 3.85994 5.20816 4.05725 5.07885 4.24362C4.81169 4.62856 4.9314 5.87775 4.08788 5.97035L3.58379 6.06152C3.58379 5.41968 3.6074 4.88503 3.7244 4.35686C3.78257 4.09429 4.06867 3.57837 4.01728 3.34387C3.96502 3.10544 3.78002 3.09615 3.58379 3.09615C3.21043 3.09615 2.90193 4.64416 2.89297 4.98156C2.88169 5.40535 2.93519 5.85488 2.87555 6.26753C2.86096 6.36894 2.86014 6.45119 2.84712 6.55425C2.81027 6.84643 2.31242 7.37206 2.88391 8.13871C3.13875 8.48057 3.44443 8.65224 3.90543 8.75726C4.01733 10.0723 4.30239 10.8351 5.01405 11.7168C5.29553 12.0657 5.73922 12.4215 6.1319 12.6456C6.44556 12.8246 6.34055 12.8891 6.34055 13.2503C6.34055 13.4629 5.41774 13.9345 5.24811 13.9792L3.0841 14.6038C2.38037 14.8238 1.75646 15.0285 1.35071 15.6943C1.10173 16.1029 1.01137 16.5948 0.915104 17.0655C0.812051 17.5695 0.704223 18.0967 0.601115 18.6006C0.496 19.1148 0.387792 19.6438 0.287181 20.1357C0.18733 20.6239 0 21.1969 0 21.6971C0 22.4339 0.539793 23 1.28651 23H5.10001C5.58581 23 5.56823 22.3261 5.10001 22.3261H3.85947V19.1361C3.85947 18.7194 3.17028 18.7219 3.17028 19.0911V22.3261H1.56218C0.323214 22.3261 0.773521 21.3522 0.953362 20.4727C1.19963 19.2687 1.40714 18.0175 1.69085 16.8357C1.9096 15.9244 2.15076 15.5961 3.0943 15.3326C3.4656 15.2289 5.09182 14.6952 5.42165 14.688C5.4668 14.8777 5.5488 15.1062 5.62477 15.2981C5.81883 15.7881 5.98896 16.8446 6.66214 16.8446C7.02372 16.8446 7.39209 16.6116 7.71845 16.4847C7.83338 16.4401 7.9786 16.401 8.08648 16.3504L8.08524 18.9126C8.07916 19.5486 8.46375 19.6348 8.70068 19.3772C8.85751 19.2067 8.77568 18.355 8.77568 18.1027C8.77568 17.5186 8.77568 16.9345 8.77568 16.3504C9.20873 16.3857 9.87583 16.8446 10.2919 16.8446C11.0013 16.8446 11.167 15.8927 11.3664 15.3344C11.4232 15.1755 11.5671 14.8206 11.5783 14.688C11.8457 14.6938 14.1145 15.3657 14.4127 15.5107C15.6824 16.128 15.0729 17.7882 15.8054 17.7882C16.5731 17.7882 15.7643 15.8411 15.577 15.5853C15.2273 15.1077 14.6768 14.8107 14.0963 14.652C13.4524 14.4759 12.8286 14.2831 12.2116 14.1137C11.5435 13.9302 11.5051 13.8866 10.9902 13.5559C10.5881 13.2976 10.6594 13.2794 10.6594 12.8459C10.6594 12.7109 10.7507 12.7126 10.8681 12.6456C11.5028 12.2833 11.5513 12.123 11.9801 11.7112C12.6847 11.0345 13.0946 9.90536 13.0946 8.75726C13.6556 8.71162 14.3811 8.09403 14.3811 7.49926C14.3811 6.96817 14.3262 7.0725 14.182 6.66054C14.1087 6.4513 14.151 6.1252 14.1514 5.88179C14.1532 4.44415 13.8138 3.05306 12.8547 1.98287C12.3978 1.47311 11.8877 1.03594 11.2715 0.700455C9.31281 -0.365921 6.60386 -0.237658 4.90519 1.24322C4.75265 1.37615 4.18111 1.86665 4.18111 2.06278Z" fill="#D2B48C"/>
</svg>
