<svg width="21" height="21" viewBox="0 0 21 21" fill="none" xmlns="http://www.w3.org/2000/svg">
<path d="M1.19688 20.0037C1.07087 19.9515 0.940104 19.9114 0.819889 19.8472C0.31952 19.589 0.0427085 19.1827 0.00949109 18.621C0.00474576 18.5371 0.00579989 18.4521 0.00579989 18.3676C0.00579989 13.7995 0.00386657 9.23135 0 4.66324C0 4.11821 0.175577 3.68793 0.568386 3.3072C1.51745 2.38822 2.45492 1.45516 3.38923 0.520542C3.54925 0.352665 3.74324 0.220015 3.95854 0.131231C4.17384 0.0424474 4.40564 -0.000479389 4.63883 0.00524714C7.90784 0.0125489 11.1795 0.0219373 14.449 3.20843e-05C15.3137 -0.00518345 16.0588 0.625896 16.0419 1.57929C16.0203 2.7893 16.0366 3.99982 16.0366 5.21034C16.0395 5.26879 16.0379 5.32738 16.0319 5.38559C16.0241 5.46136 15.9866 5.5311 15.9275 5.57985C15.8684 5.62861 15.7922 5.65248 15.7155 5.64636C15.5494 5.62863 15.4519 5.53475 15.4434 5.36629C15.4392 5.3011 15.4403 5.2359 15.4403 5.17071C15.4403 3.97983 15.4403 2.78912 15.4403 1.59859C15.4403 0.928222 15.0993 0.593559 14.4174 0.594602H4.6673C4.6209 0.594602 4.57451 0.598253 4.52916 0.594602C4.38575 0.582606 4.33513 0.640498 4.33618 0.786533C4.34251 1.56104 4.33935 2.33555 4.33882 3.10953C4.33882 3.90333 3.94021 4.29815 3.13983 4.29815H0.613203C0.608458 4.38838 0.601077 4.46348 0.601077 4.53911C0.601077 9.19205 0.601077 13.8448 0.601077 18.4974C0.601077 19.0518 0.965413 19.4159 1.52589 19.4159C5.8554 19.4159 10.1847 19.4159 14.5139 19.4159C15.0628 19.4159 15.4255 19.0565 15.4403 18.512C15.4434 18.3952 15.4371 18.2779 15.4434 18.161C15.4529 17.9894 15.5673 17.871 15.7218 17.8627C15.8018 17.8611 15.8792 17.8905 15.9376 17.9446C15.9961 17.9986 16.0308 18.0731 16.0345 18.1522C16.1283 19.1671 15.6433 19.8003 14.8476 19.9776C14.836 19.9802 14.8271 19.9932 14.8171 20.0011L1.19688 20.0037ZM3.72773 1.12346L1.11726 3.70775H1.88601C2.33945 3.70775 2.7929 3.71088 3.24581 3.70775C3.53633 3.70462 3.72034 3.56693 3.72456 3.32545C3.73669 2.57807 3.73036 1.83225 3.73036 1.12346H3.72773Z" fill="#D2B48C"/>
<path d="M13.6736 14.5674C12.9998 14.3797 12.7214 14.0558 12.6465 13.3976C12.6201 13.1655 12.5004 12.983 12.2774 12.9099C12.103 12.8492 11.9451 12.7494 11.8161 12.6184C11.6871 12.4874 11.5904 12.3286 11.5336 12.1546C11.4768 11.9805 11.4614 11.7958 11.4887 11.6149C11.5159 11.434 11.585 11.2618 11.6906 11.1116C11.8282 10.9103 11.8187 10.6876 11.6832 10.4858C11.5811 10.3375 11.5144 10.1681 11.4883 9.99052C11.4622 9.81293 11.4774 9.63181 11.5326 9.46088C11.5879 9.28996 11.6817 9.13373 11.8071 9.00405C11.9325 8.87438 12.0862 8.77467 12.2563 8.71249C12.5094 8.62591 12.6328 8.42772 12.6518 8.15912C12.7045 7.41382 13.3609 6.91939 14.098 7.08211C14.4112 7.15096 14.6401 7.07116 14.851 6.83698C15.345 6.28883 16.1486 6.29561 16.6357 6.84741C16.8335 7.07116 17.0533 7.14991 17.3523 7.08524C18.1005 6.92304 18.7232 7.36427 18.8117 8.11792C18.8487 8.43085 18.9905 8.62226 19.2863 8.74795C19.4424 8.81135 19.5827 8.90769 19.6973 9.03025C19.8119 9.15281 19.8981 9.29864 19.9499 9.45756C20.0017 9.61648 20.0177 9.78466 19.997 9.95035C19.9763 10.1161 19.9192 10.2753 19.8299 10.4169C19.667 10.6886 19.6685 10.9296 19.8299 11.1993C19.9186 11.3409 19.9752 11.4999 19.9955 11.6653C20.0159 11.8307 19.9996 11.9985 19.9477 12.157C19.8959 12.3155 19.8098 12.461 19.6954 12.5833C19.581 12.7056 19.441 12.8017 19.2852 12.8651C18.9826 12.995 18.8423 13.1963 18.8107 13.5155C18.758 14.0276 18.4622 14.3625 17.9718 14.5137C17.8347 14.5565 17.8036 14.6107 17.8047 14.7401C17.8096 15.5398 17.8096 16.3395 17.8047 17.1392C17.8047 17.5241 17.6149 17.7854 17.2716 17.824C17.1099 17.8337 16.9487 17.7975 16.8071 17.7197C16.4907 17.5518 16.1855 17.3546 15.8823 17.1611C15.7805 17.0959 15.7051 17.0886 15.5997 17.1564C15.3028 17.3478 14.9949 17.5215 14.6954 17.7114C14.4655 17.8548 14.2309 17.8939 13.9889 17.7552C13.7569 17.6211 13.6699 17.4104 13.6725 17.1476C13.6773 16.3605 13.6725 15.573 13.6725 14.7854L13.6736 14.5674ZM19.4249 9.83643C19.4201 9.71232 19.3785 9.59235 19.3051 9.49153C19.2318 9.3907 19.1301 9.31348 19.0126 9.2695C18.5249 9.07288 18.2713 8.71405 18.2217 8.20032C18.1827 7.79299 17.8822 7.56872 17.4836 7.65999C16.9653 7.77891 16.5424 7.64278 16.1934 7.24275C15.9266 6.93764 15.5354 6.94442 15.2691 7.25109C14.9327 7.63861 14.5193 7.77265 14.0153 7.6626C13.5834 7.56663 13.2771 7.79559 13.2407 8.23109C13.2012 8.71874 12.9497 9.0541 12.5026 9.25125C12.0665 9.44318 11.9568 9.7728 12.1967 10.1822C12.4367 10.5916 12.4403 11.0084 12.2004 11.4214C11.9605 11.8345 12.0644 12.1631 12.5142 12.3634C12.9528 12.5584 13.1996 12.8917 13.2397 13.371C13.2755 13.8101 13.5782 14.0438 14.01 13.9489C14.5135 13.8383 14.9279 13.9677 15.2659 14.3546C15.5412 14.6676 15.9261 14.6718 16.2039 14.3546C16.5429 13.9692 16.9547 13.8331 17.4593 13.9468C17.888 14.0417 18.178 13.8268 18.2233 13.3919C18.276 12.8959 18.5212 12.5443 18.9915 12.3488C19.3996 12.1777 19.5141 11.822 19.2847 11.4413C19.029 11.0162 19.0279 10.5958 19.2815 10.1687C19.337 10.0613 19.3849 9.95029 19.4249 9.83643ZM14.2842 14.5033V17.2639C14.3738 17.2117 14.436 17.1799 14.4951 17.1434C14.7866 16.9666 15.0782 16.7908 15.3677 16.6109C15.6086 16.4612 15.848 16.4544 16.0911 16.6041C16.3934 16.7884 16.696 16.9718 16.999 17.1543C17.0517 17.1862 17.1082 17.2138 17.1857 17.256V14.5043C17.0951 14.4951 17.0035 14.5076 16.9188 14.5407C16.8341 14.5738 16.7587 14.6267 16.699 14.6947C16.6463 14.751 16.5936 14.8136 16.5382 14.8668C16.05 15.3133 15.3039 15.2747 14.8452 14.7745C14.6938 14.6081 14.5325 14.4793 14.2842 14.5033Z" fill="#D2B48C"/>
<path d="M9.81566 2.03354C10.7953 2.03354 11.7751 2.03354 12.7551 2.03354C13.2718 2.03354 13.5186 2.27554 13.5207 2.78249C13.5207 3.06204 13.5244 3.34211 13.5207 3.62167C13.5133 4.02118 13.2428 4.29708 12.8353 4.29969C11.4676 4.3049 10.0999 4.30281 8.73162 4.29969C8.51491 4.29969 8.38784 4.18547 8.38363 4.00814C8.37941 3.82142 8.50542 3.70981 8.73953 3.70929C10.0401 3.7072 11.3423 3.7072 12.646 3.70929C12.9265 3.70929 12.9265 3.70929 12.9265 3.43756C12.9265 3.2232 12.9207 3.00832 12.9265 2.79396C12.9307 2.67035 12.8938 2.62237 12.7609 2.62289C10.8009 2.62602 8.84111 2.62602 6.88146 2.62289C6.75387 2.62289 6.70694 2.6594 6.71116 2.78875C6.71907 3.0417 6.71801 3.29569 6.71116 3.54917C6.708 3.66756 6.75123 3.71502 6.86934 3.71033C7.00062 3.70564 7.13297 3.70616 7.26373 3.71033C7.46408 3.7192 7.58799 3.83498 7.58641 4.00449C7.58483 4.17399 7.45829 4.29186 7.26004 4.29969C7.09606 4.30594 6.93103 4.30751 6.76705 4.29969C6.39797 4.28091 6.13434 4.03213 6.11694 3.66861C6.10165 3.33742 6.10165 3.00467 6.11694 2.67348C6.13381 2.27919 6.40429 2.03719 6.8145 2.03562C7.81629 2.03197 8.81598 2.03354 9.81566 2.03354Z" fill="#D2B48C"/>
<path d="M6.32155 7.09482H9.93063C9.99624 7.09238 10.0619 7.09412 10.1273 7.10003C10.2902 7.12246 10.3951 7.20904 10.4009 7.37906C10.4067 7.55848 10.3045 7.65444 10.1331 7.68417C10.0807 7.6913 10.0278 7.69391 9.97492 7.692C7.53653 7.692 5.09778 7.692 2.65868 7.692C2.58117 7.692 2.48152 7.70034 2.43037 7.65862C2.34707 7.59134 2.24003 7.48233 2.2453 7.39784C2.25058 7.30135 2.35603 7.19548 2.44303 7.12455C2.49312 7.08387 2.59435 7.09795 2.67238 7.09795C3.88895 7.09517 5.10533 7.09412 6.32155 7.09482Z" fill="#D2B48C"/>
<path d="M6.32094 9.74161H2.69234C2.62696 9.74161 2.56053 9.74161 2.49567 9.73692C2.4288 9.73338 2.36555 9.70574 2.31786 9.65924C2.27017 9.61274 2.24133 9.55057 2.23679 9.48448C2.22479 9.41927 2.23773 9.35198 2.2731 9.29568C2.30848 9.23939 2.36376 9.19811 2.42818 9.1799C2.49658 9.15993 2.56784 9.15129 2.63909 9.15434C5.09155 9.15434 7.54348 9.15434 9.99488 9.15434C10.0477 9.1503 10.1008 9.1524 10.1531 9.1606C10.3112 9.19815 10.4093 9.29412 10.4003 9.46362C10.3914 9.63313 10.2949 9.7244 10.1267 9.739C10.0613 9.74474 9.99541 9.74213 9.9295 9.74213L6.32094 9.74161Z" fill="#D2B48C"/>
<path d="M6.32025 11.802H2.67162C2.61256 11.8058 2.55327 11.8044 2.49446 11.7978C2.32996 11.7696 2.23083 11.6648 2.23558 11.5036C2.2341 11.4675 2.23989 11.4314 2.25262 11.3975C2.26534 11.3636 2.28475 11.3325 2.30972 11.306C2.33468 11.2796 2.36471 11.2583 2.39805 11.2434C2.43139 11.2286 2.46739 11.2204 2.50395 11.2194C2.5629 11.215 2.62204 11.2138 2.68111 11.2157H9.95729C10.0164 11.2137 10.0755 11.2151 10.1344 11.2199C10.3026 11.2392 10.3981 11.3362 10.3981 11.5026C10.3981 11.669 10.3042 11.7675 10.1424 11.7983C10.0835 11.805 10.0242 11.8062 9.9652 11.802H6.32025Z" fill="#D2B48C"/>
<path d="M6.32246 13.8638H2.71389C2.65431 13.8638 2.59473 13.867 2.53621 13.8612C2.35588 13.843 2.2304 13.7183 2.23145 13.5624C2.23251 13.4064 2.35747 13.287 2.54095 13.2708C2.59368 13.2667 2.6464 13.2682 2.69913 13.2682H9.93576C10.0014 13.2664 10.0671 13.2685 10.1324 13.2745C10.2985 13.2948 10.3961 13.3877 10.4008 13.5566C10.4055 13.7256 10.3075 13.8216 10.1472 13.8539C10.0823 13.8634 10.0166 13.8664 9.95105 13.8628L6.32246 13.8638Z" fill="#D2B48C"/>
<path d="M4.42443 16.8752C3.82019 16.8752 3.21543 16.8788 2.61119 16.871C2.51365 16.871 2.39027 16.8407 2.32805 16.7771C2.29627 16.7391 2.27344 16.6946 2.26122 16.6468C2.249 16.599 2.2477 16.5491 2.2574 16.5007C2.28165 16.4193 2.38869 16.3578 2.4683 16.2978C2.49414 16.278 2.54475 16.2874 2.5843 16.2874H6.26984C6.28302 16.2874 6.2962 16.2874 6.30938 16.2874C6.50605 16.2978 6.63365 16.4162 6.62996 16.5841C6.62627 16.7521 6.49287 16.871 6.29778 16.8731C5.91025 16.8773 5.52271 16.8731 5.13518 16.8731L4.42443 16.8752Z" fill="#D2B48C"/>
<path d="M15.7219 13.2581C14.3553 13.2502 13.2391 12.1367 13.2491 10.7916C13.2591 9.44656 14.3932 8.33617 15.7504 8.34973C16.4026 8.36208 17.0237 8.62798 17.4791 9.08989C17.9346 9.5518 18.1879 10.1725 18.1842 10.8178C18.1804 11.463 17.92 12.0809 17.4591 12.5376C16.9983 12.9943 16.3742 13.2531 15.7219 13.2581ZM13.8533 10.8068C13.8524 11.1762 13.9624 11.5375 14.1694 11.845C14.3764 12.1524 14.671 12.3921 15.016 12.5337C15.3609 12.6752 15.7406 12.7122 16.1068 12.64C16.473 12.5678 16.8093 12.3896 17.073 12.128C17.3367 11.8665 17.5159 11.5333 17.5879 11.1708C17.6599 10.8084 17.6214 10.4329 17.4773 10.0921C17.3332 9.75133 17.0901 9.46053 16.7787 9.25664C16.4673 9.05275 16.1017 8.94495 15.7283 8.94691C15.4815 8.94718 15.2371 8.9956 15.0093 9.08939C14.7814 9.18318 14.5745 9.32051 14.4003 9.4935C14.2262 9.66649 14.0882 9.87176 13.9943 10.0976C13.9005 10.3234 13.8526 10.5652 13.8533 10.8094V10.8068Z" fill="#D2B48C"/>
</svg>
