<svg width="49" height="49" viewBox="0 0 49 49" fill="none" xmlns="http://www.w3.org/2000/svg">
<path d="M18.1436 43.5557C19.8349 43.5557 21.2061 42.1845 21.2061 40.4932C21.2061 38.8018 19.8349 37.4307 18.1436 37.4307C16.4522 37.4307 15.0811 38.8018 15.0811 40.4932C15.0811 42.1845 16.4522 43.5557 18.1436 43.5557Z" fill="#23356B"/>
<path d="M36.75 43.5557C38.4414 43.5557 39.8125 42.1845 39.8125 40.4932C39.8125 38.8018 38.4414 37.4307 36.75 37.4307C35.0586 37.4307 33.6875 38.8018 33.6875 40.4932C33.6875 42.1845 35.0586 43.5557 36.75 43.5557Z" fill="#23356B"/>
<path d="M45.0256 7.30922C44.899 7.15308 44.7393 7.02694 44.5581 6.93986C44.3769 6.85279 44.1786 6.80693 43.9776 6.80561H15.6392L16.524 9.52783H42.1945L38.5604 25.8612H18.1437L11.9234 6.16588C11.8561 5.9569 11.7393 5.76729 11.5829 5.61323C11.4264 5.45917 11.2351 5.34525 11.0251 5.28116L5.44452 3.56616C5.27293 3.51343 5.09263 3.49502 4.91392 3.51197C4.73521 3.52892 4.56159 3.5809 4.40297 3.66495C4.08262 3.8347 3.84282 4.12475 3.73633 4.4713C3.62984 4.81785 3.66537 5.19251 3.83512 5.51286C4.00487 5.83321 4.29492 6.073 4.64147 6.17949L9.52786 7.67672L15.7754 27.4128L13.5431 29.2367L13.3662 29.4137C12.814 30.05 12.5011 30.8589 12.4812 31.7011C12.4613 32.5434 12.7358 33.3662 13.2573 34.0278C13.6283 34.479 14.0997 34.8371 14.6338 35.0734C15.168 35.3097 15.75 35.4178 16.3334 35.3889H39.0504C39.4114 35.3889 39.7576 35.2455 40.0128 34.9903C40.2681 34.735 40.4115 34.3888 40.4115 34.0278C40.4115 33.6668 40.2681 33.3206 40.0128 33.0654C39.7576 32.8101 39.4114 32.6667 39.0504 32.6667H16.1156C15.9589 32.6614 15.8062 32.6157 15.6723 32.5341C15.5383 32.4525 15.4277 32.3377 15.3511 32.2009C15.2745 32.064 15.2344 31.9098 15.2348 31.7529C15.2352 31.5961 15.2761 31.442 15.3534 31.3056L18.6337 28.5834H39.6493C39.9639 28.5911 40.2715 28.4895 40.5196 28.2959C40.7678 28.1023 40.9412 27.8288 41.0104 27.5217L45.3251 8.46616C45.3665 8.26324 45.361 8.05356 45.3091 7.85307C45.2572 7.65258 45.1603 7.46657 45.0256 7.30922Z" fill="#23356B"/>
<rect x="21" y="18" width="4" height="4" fill="#23356B"/>
<rect x="24" y="13" width="4" height="4" fill="#23356B"/>
<rect x="30" y="13" width="4" height="4" fill="#23356B"/>
<rect x="27" y="18" width="4" height="4" fill="#23356B"/>
<rect x="33" y="18" width="4" height="4" fill="#23356B"/>
</svg>
