<svg width="26" height="27" viewBox="0 0 26 27" fill="none" xmlns="http://www.w3.org/2000/svg">
<path fill-rule="evenodd" clip-rule="evenodd" d="M22.2346 4.72677C19.8342 2.32354 16.6418 0.999456 13.2409 0.998047C6.23288 0.998047 0.529388 6.70138 0.526569 13.7113C0.525629 15.9521 1.11101 18.1395 2.22368 20.0676L0.419922 26.6559L7.15997 24.8879C9.01713 25.9009 11.1079 26.4348 13.2357 26.4354H13.241C20.2483 26.4354 25.9524 20.7316 25.955 13.7214C25.9564 10.3241 24.6352 7.12985 22.2346 4.72677ZM13.2409 24.2882H13.2365C11.3403 24.2875 9.48068 23.7779 7.85795 22.8152L7.47224 22.5861L3.47259 23.6354L4.54016 19.7358L4.28881 19.336C3.23095 17.6534 2.67235 15.7087 2.67329 13.712C2.67548 7.88562 7.41618 3.14539 13.2451 3.14539C16.0677 3.14633 18.7211 4.24694 20.7162 6.24441C22.7113 8.24189 23.8094 10.8969 23.8085 13.7207C23.806 19.5476 19.0656 24.2882 13.2409 24.2882V24.2882ZM19.0374 16.3737C18.7198 16.2146 17.1578 15.4463 16.8666 15.3401C16.5756 15.2341 16.3636 15.1813 16.152 15.4992C15.9401 15.8171 15.3314 16.5328 15.146 16.7447C14.9605 16.9567 14.7754 16.9833 14.4577 16.8242C14.1399 16.6653 13.1164 16.3297 11.9029 15.2474C10.9585 14.405 10.321 13.3647 10.1356 13.0468C9.95049 12.7286 10.134 12.5732 10.275 12.3985C10.6189 11.9714 10.9632 11.5237 11.0691 11.3118C11.1751 11.0997 11.122 10.9142 11.0425 10.7552C10.9632 10.5963 10.3279 9.03258 10.0632 8.3963C9.80516 7.77709 9.54348 7.86072 9.34835 7.85101C9.16324 7.84177 8.95136 7.83989 8.73947 7.83989C8.52775 7.83989 8.18353 7.91929 7.89225 8.23751C7.60112 8.55557 6.78052 9.32402 6.78052 10.8877C6.78052 12.4514 7.91887 13.962 8.07767 14.174C8.23646 14.3861 10.3179 17.5949 13.5046 18.9708C14.2626 19.2984 14.8542 19.4937 15.3157 19.6401C16.0768 19.8819 16.7692 19.8478 17.3166 19.766C17.9271 19.6747 19.196 18.9974 19.461 18.2554C19.7257 17.5133 19.7257 16.8773 19.6461 16.7447C19.5669 16.6122 19.355 16.5328 19.0374 16.3737V16.3737Z" fill="#D2B48C"/>
</svg>
