<svg width="19" height="44" viewBox="0 0 19 44" fill="none" xmlns="http://www.w3.org/2000/svg">
<path d="M1.01242 44.0001C0.903013 43.7398 0.703282 43.4795 0.696921 43.2191C0.492524 34.5894 0.299576 25.9592 0.118079 17.3286C0.0684636 14.9961 -0.0600263 12.6584 0.0328428 10.3311C0.160061 7.20719 0.460296 4.0833 0.689288 0.959411C0.699465 0.829248 0.743992 0.708197 0.759258 0.580638C0.808873 0.162818 1.04041 0.000113007 1.44496 0.00271625C2.78838 0.0131292 4.13181 0.00271625 5.47523 0.00271625H17.2734C18.0889 0.00271625 18.1907 0.0339571 18.3166 0.881313C18.524 2.26363 18.7059 3.65507 18.8077 5.0465C19.2122 10.5133 18.8624 15.9801 18.7797 21.4469C18.7123 25.9271 18.5825 30.406 18.4845 34.8862C18.4235 37.6912 18.3751 40.4962 18.2963 43.3011C18.2899 43.5367 18.0914 43.7658 17.982 43.9975H10.8413C10.7344 43.7372 10.55 43.4769 10.5321 43.2048C10.4711 42.2625 10.4647 41.3175 10.4393 40.3725C10.2629 33.7195 10.0848 27.0669 9.90495 20.4147C9.87103 19.1418 9.8176 17.8696 9.74466 16.5984C9.71667 16.0973 9.61744 15.6 9.55129 15.1015H9.44061C9.37446 15.6157 9.27141 16.1272 9.24978 16.6426C9.1531 18.9587 9.07041 21.2751 9.00171 23.592C8.81979 30.13 8.6544 36.6694 8.46358 43.2074C8.45594 43.4678 8.2613 43.7281 8.15316 43.9988L1.01242 44.0001ZM1.14982 6.92864C1.11038 8.73009 1.0226 10.5042 1.04423 12.2757C1.07857 15.3892 1.18035 18.5131 1.25032 21.637C1.39874 28.6067 1.54504 35.5769 1.68922 42.5475C1.68922 42.6777 1.70703 42.7974 1.71721 42.938H7.43184C7.44456 42.7948 7.46237 42.6777 7.46491 42.5709C7.5828 38.2782 7.70069 33.985 7.81858 29.6914C7.93308 25.5262 8.02213 21.361 8.17734 17.1958C8.23204 15.7419 8.42032 14.2893 8.92538 12.9005C8.97441 12.7375 8.9955 12.5671 8.98771 12.3968C8.98771 9.43427 8.98771 6.47091 8.98771 3.50668V3.02378C8.16207 3.02378 7.39494 3.01597 6.62909 3.03549C6.54131 3.03549 6.43063 3.18258 6.37466 3.28671C6.18637 3.65506 5.75383 3.74358 5.51721 3.43509C5.44215 3.3167 5.38028 3.19009 5.33274 3.05762H3.97914C3.79213 4.91504 3.20693 6.44444 1.14982 6.92864ZM17.3065 42.951C17.3065 42.6633 17.3065 42.4226 17.3065 42.1818C17.371 38.9615 17.4367 35.7413 17.5037 32.5211C17.6589 25.465 17.8332 18.4102 17.9655 11.3542C17.9935 9.87031 17.8739 8.38516 17.823 6.92083C15.7875 6.42361 15.2176 4.8812 15.0242 3.04591H13.6477L13.7177 3.14873C13.5281 3.30363 13.3602 3.53922 13.1439 3.59649C12.845 3.6837 12.6656 3.46633 12.588 3.15654C12.5727 3.09667 12.443 3.03549 12.3628 3.02638C12.102 3.01076 11.8399 3.02638 11.5346 3.02638V3.54052C11.5283 5.1285 11.5461 6.71908 11.5054 8.30706C11.4799 9.31452 11.1339 10.1801 10.1759 10.6643C10.111 10.6968 10.0207 10.7788 10.022 10.8374C10.0309 11.5351 9.91641 12.2757 10.106 12.92C10.5175 14.316 10.7585 15.7588 10.8235 17.2154C10.9507 20.0893 11.0079 22.9659 11.0868 25.8425C11.2386 31.3961 11.3875 36.9497 11.5333 42.5033C11.5333 42.6529 11.5588 42.8013 11.5728 42.951H17.3065ZM13.6172 1.96166H17.4732C17.4095 1.64276 17.3459 1.3538 17.2938 1.06744H13.6172V1.96166ZM1.57854 1.96166H5.34419V1.07135H1.71848C1.67523 1.36551 1.63452 1.64536 1.58872 1.95645L1.57854 1.96166ZM16.0967 3.04851C16.0559 4.35013 16.8472 5.71683 17.7505 5.72464C17.72 5.28209 17.6881 4.84084 17.6589 4.40089C17.6296 3.96095 17.6042 3.50017 17.5762 3.04851H16.0967ZM1.26813 5.75718C2.27315 5.51378 2.99448 4.29026 2.90161 3.03419H1.48313C1.41189 3.93491 1.34192 4.83043 1.26813 5.75718ZM10.036 3.02378V9.50846C10.4418 8.97349 10.5054 8.44373 10.5067 7.90226C10.5067 6.38717 10.5067 4.87208 10.5067 3.3583C10.5067 3.24896 10.4863 3.13962 10.4749 3.02378H10.036ZM6.43191 1.94344H8.96736V1.05573H6.43191V1.94344ZM12.5613 1.05573H11.0665V1.94473H12.5613V1.05573ZM10.2039 1.98248V1.04011C9.81081 1.09348 10.0614 1.45533 10.0118 1.66879C9.96857 1.85232 9.9851 2.05668 10.2039 1.98248Z" fill="white"/>
</svg>
