<svg width="69" height="75" viewBox="0 0 69 75" fill="none" xmlns="http://www.w3.org/2000/svg">
<path fill-rule="evenodd" clip-rule="evenodd" d="M28.8536 60.1968H39.7124V71.4355H28.8536V60.1968ZM11.7897 44.6473C11.7897 46.6966 14.8733 46.1869 16.9089 46.1869C18.3935 46.1869 18.6898 43.1077 16.5985 43.1077C14.7475 43.1077 11.7897 42.6278 11.7897 44.6473ZM11.7897 37.2574C11.7897 39.2769 14.7475 38.797 16.5985 38.797C18.6629 38.797 18.4328 35.7178 16.9089 35.7178C14.5655 35.7178 11.7897 35.1682 11.7897 37.2574ZM21.8729 37.2574C21.8729 37.9873 22.6302 38.797 23.4242 38.797H39.092C41.1562 38.797 40.9261 35.7178 39.4022 35.7178H23.1139C22.5382 35.7178 21.8729 36.6651 21.8729 37.2574ZM21.8729 44.6473C21.8729 45.3772 22.6302 46.1869 23.4242 46.1869H55.2252C57.2256 46.1869 57.2256 43.1077 55.2252 43.1077H23.4242C22.6302 43.1077 21.8729 43.9174 21.8729 44.6473ZM3.25767 55.2703V52.9609H65.3084C65.3084 54.2531 65.717 56.9637 63.4468 56.9637H5.11919C4.28334 56.9637 3.25767 56.1346 3.25767 55.2703ZM21.5627 18.6288L30.7668 23.196C35.1887 25.3903 33.7324 25.2141 40.7984 21.7078C42.8508 20.6894 44.9815 19.6905 47.0033 18.6288C47.0033 20.9485 47.2803 25.7177 46.8483 27.5581C44.395 28.7264 36.0216 28.9437 32.7317 28.9437C30.4691 28.9437 23.3658 28.3429 21.7177 27.5581C21.2857 25.7177 21.5627 20.9485 21.5627 18.6288ZM15.9781 12.1626C17.1909 11.8822 33.5958 3.23308 34.283 3.23308C34.6736 3.23308 42.4343 7.20098 43.4355 7.69794C44.9609 8.45475 46.4165 9.17719 47.9859 9.95583C48.9997 10.459 51.7009 11.9575 52.5879 12.1626C52.2379 12.6367 48.9324 14.1305 48.1409 14.5232C46.5282 15.3235 45.1 16.0323 43.4871 16.8326C42.3801 17.3819 34.6458 21.33 34.283 21.33C34.2777 21.33 16.4127 12.7514 15.9781 12.1626ZM11.7897 12.3164C11.7897 14.1583 13.508 14.6318 14.6337 15.1904C15.9525 15.8448 17.2043 16.4296 18.4601 17.0892C18.4601 18.6084 18.2811 27.2663 18.6233 28.3198C18.9258 29.2509 19.5145 29.9808 20.3657 30.4395C22.4396 31.5575 30.9814 32.1768 34.4382 32.1768C37.8714 32.1768 46.0806 31.5122 48.0982 30.4923C50.5036 29.2763 50.106 26.9701 50.106 24.7869C50.106 22.221 50.106 19.6551 50.106 17.0892C50.5463 16.8579 50.9695 16.5964 51.5021 16.4733C51.5021 17.6849 51.3803 25.8887 51.6238 26.6677C51.9048 27.567 52.7799 28.0869 53.7717 27.6669C55.2301 27.0492 54.7598 24.3774 54.7598 21.7078C54.7598 19.3985 54.7598 17.0892 54.7598 14.7798C55.4295 14.4281 56.7763 13.9055 56.7763 12.3164C56.7763 11.0048 55.8719 10.4002 54.9144 9.85363L63.7277 9.57451C64.4395 9.68943 65.3084 10.3737 65.3084 11.2389V49.7278H3.25767V11.2389C3.25767 9.05754 6.54648 9.54523 7.75629 9.54523C9.87652 9.54523 11.9966 9.54523 14.1166 9.54523C13.8944 9.73707 14.0712 9.60833 13.7509 9.79817C13.5999 9.88782 13.4797 9.94073 13.3482 10.0144C12.5226 10.4766 11.7897 11.206 11.7897 12.3164ZM0 11.3927V55.1163C0 58.2244 2.64424 60.1968 6.20514 60.1968H25.596V71.4355H20.0114C18.1374 71.4355 18.1374 74.5148 20.0114 74.5148H48.5546C50.4286 74.5148 50.4286 71.4355 48.5546 71.4355H42.9701V60.1968H62.3609C64.1805 60.1968 65.7133 59.821 66.6702 58.9312C67.6312 58.038 68.566 56.9037 68.566 55.1163V11.3927C68.566 9.62815 67.6857 8.55749 66.7468 7.65575C65.6959 6.64637 64.3857 6.30069 62.362 6.31124C58.5371 6.33106 54.707 6.31233 50.8816 6.31233C47.7558 6.31233 48.4762 6.65837 46.1244 5.49115C44.384 4.62742 35.6172 0 34.4382 0C32.8162 0 28.0341 2.71612 26.3715 3.54112C25.6775 3.88552 21.1935 6.21996 20.6184 6.29888L6.35978 6.31179C3.79066 6.30233 1.6598 7.04314 0.61324 9.07609C0.312208 9.66088 0 10.4952 0 11.3927Z" fill="#D2B48C"/>
</svg>
