<svg width="79" height="79" viewBox="0 0 79 79" fill="none" xmlns="http://www.w3.org/2000/svg">
<path d="M65.0055 78.5264C64.5933 78.5264 64.1811 78.5264 63.7689 78.5264C61.646 77.4628 59.5231 76.3991 57.3796 75.3764C57.1323 75.2536 56.7201 75.2332 56.4727 75.3559C54.3086 76.3991 52.1651 77.4832 50.0217 78.5469C49.6095 78.5469 49.1972 78.5469 48.785 78.5469C47.466 77.9128 47.0537 76.8491 47.095 75.4377C47.1774 73.0445 47.1156 70.6308 47.1156 68.2376C47.1156 67.6035 47.1156 66.9694 47.1156 66.2535C46.7034 66.2535 46.3736 66.2535 46.0438 66.2535C31.6371 66.2535 17.251 66.2535 2.84425 66.2535C0.886252 66.2535 0.0206102 65.3944 0.0206102 63.4511C0.0206102 43.3031 0.0206105 23.155 0 3.00687C0 1.59548 0.41221 0.593193 1.71067 0C26.9173 0 52.1033 0 77.3099 0C78.0931 0.347734 78.6496 0.920469 79 1.69776C79 22.664 79 43.6303 79 64.5966C78.3611 65.8853 77.2893 66.3148 75.8672 66.2739C73.4352 66.1921 70.9825 66.2535 68.5505 66.2535C67.9322 66.2535 67.3345 66.2535 66.6337 66.2535C66.6337 66.6012 66.6337 66.8876 66.6337 67.1535C66.6337 69.9149 66.5925 72.6763 66.6543 75.4377C66.7161 76.8287 66.3246 77.8923 65.0055 78.5264ZM4.7198 61.5488C18.8792 61.5488 32.9768 61.5488 47.1362 61.5488C47.1362 60.0965 47.1774 58.6852 47.1156 57.2738C47.095 56.7828 46.9507 56.2101 46.6828 55.801C41.6126 48.1713 46.6828 37.678 55.8338 37.0029C60.8628 36.6348 64.8612 38.6393 67.4169 42.9758C69.9726 47.2918 69.7253 51.6896 67.0253 55.9442C66.9016 56.1487 66.6955 56.3942 66.6955 56.6192C66.6749 58.2556 66.6749 59.892 66.6749 61.5693C69.2719 61.5693 71.8069 61.5693 74.3626 61.5693C74.3626 42.5871 74.3626 23.6254 74.3626 4.64326C51.1346 4.64326 27.9272 4.64326 4.69919 4.64326C4.7198 23.605 4.7198 42.5462 4.7198 61.5488ZM56.9262 56.6397C61.1307 56.6192 64.552 53.2032 64.4902 49.0713C64.4284 44.919 61.0483 41.5644 56.9056 41.5644C52.7422 41.5644 49.2797 45.0008 49.3003 49.1327C49.3003 53.2851 52.7216 56.6601 56.9262 56.6397ZM61.9963 60.4647C60.2857 60.7511 58.5956 61.242 56.9056 61.242C55.2155 61.242 53.5048 60.7511 51.8354 60.4647C51.8354 64.3512 51.8354 68.3603 51.8354 72.4718C53.1338 71.8377 54.3499 71.2445 55.5453 70.6308C56.4727 70.1399 57.3384 70.1399 58.2659 70.6308C59.317 71.1831 60.3681 71.6945 61.4399 72.2058C61.6048 72.2877 61.7902 72.3286 62.017 72.4104C61.9963 68.3194 61.9963 64.3307 61.9963 60.4647Z" fill="#D2B48C"/>
<path d="M39.5105 31.727C32.2144 31.727 24.9183 31.727 17.6016 31.727C16.1795 31.727 15.2932 31.1131 14.9841 29.9263C14.6543 28.6577 15.5199 27.3276 16.8184 27.1435C17.0863 27.1025 17.3749 27.1025 17.6634 27.1025C32.235 27.1025 46.8066 27.1025 61.3782 27.1025C62.8004 27.1025 63.666 27.6141 64.0164 28.6577C64.511 30.1105 63.5011 31.6042 61.9141 31.727C61.6668 31.7475 61.3989 31.727 61.1515 31.727C53.9585 31.727 46.7242 31.727 39.5105 31.727Z" fill="#D2B48C"/>
<path d="M39.6338 14.7478C44.4566 14.7478 49.3001 14.7478 54.1229 14.7478C55.71 14.7478 56.7817 15.7504 56.7199 17.1419C56.6786 18.2468 55.8954 19.1471 54.8031 19.3108C54.5352 19.3517 54.2466 19.3722 53.9581 19.3722C44.3536 19.3722 34.7285 19.3722 25.124 19.3722C23.7018 19.3722 22.7744 18.7993 22.4652 17.7352C21.9912 16.1801 23.1454 14.7478 24.8972 14.7274C28.8132 14.7069 32.7086 14.7274 36.6246 14.7274C37.6139 14.7478 38.6238 14.7478 39.6338 14.7478Z" fill="#D2B48C"/>
<path d="M27.2063 41.5468C23.9704 41.5468 20.7346 41.5468 17.4781 41.5468C15.9941 41.5468 14.9224 40.6053 14.9018 39.2748C14.8812 37.9444 15.9735 36.9414 17.4987 36.9414C23.9498 36.9414 30.4009 36.9414 36.852 36.9414C38.3566 36.9414 39.3871 37.883 39.3871 39.2543C39.3871 40.6053 38.3566 41.5468 36.852 41.5468C33.6367 41.5673 30.4215 41.5468 27.2063 41.5468Z" fill="#D2B48C"/>
<path d="M27.144 51.405C23.8876 51.405 20.6105 51.4254 17.354 51.405C15.6228 51.3845 14.551 49.9317 15.0457 48.397C15.3548 47.4558 16.1999 46.801 17.2716 46.801C23.8876 46.7805 30.4829 46.7805 37.0989 46.801C38.4179 46.801 39.4072 47.8445 39.4072 49.0927C39.4072 50.3819 38.4385 51.3845 37.037 51.3845C33.7187 51.4254 30.4417 51.405 27.144 51.405Z" fill="#D2B48C"/>
</svg>
