<svg width="33" height="34" viewBox="0 0 33 34" fill="none" xmlns="http://www.w3.org/2000/svg">
<path d="M29.4167 1H3.58333C2.1566 1 1 2.19391 1 3.66667V30.3333C1 31.8061 2.1566 33 3.58333 33H29.4167C30.8434 33 32 31.8061 32 30.3333V3.66667C32 2.19391 30.8434 1 29.4167 1Z" stroke="#D2B48C" stroke-linecap="round" stroke-linejoin="round"/>
<path d="M7.02777 23.2223V10.7778H13.9167" stroke="#D2B48C" stroke-linecap="round" stroke-linejoin="round"/>
<path d="M7.02777 17H13.4861" stroke="#D2B48C" stroke-linecap="round" stroke-linejoin="round"/>
<path d="M7.02777 23.2222H13.4861" stroke="#D2B48C" stroke-linecap="round" stroke-linejoin="round"/>
<path d="M18.2222 23.2223V12.5557" stroke="#D2B48C" stroke-linecap="round" stroke-linejoin="round"/>
<path d="M18.2222 23.2221V17.4443C18.2222 16.3835 18.6305 15.3661 19.3572 14.6159C20.0839 13.8658 21.0695 13.4443 22.0972 13.4443C23.1249 13.4443 24.1106 13.8658 24.8373 14.6159C25.564 15.3661 25.9722 16.3835 25.9722 17.4443V23.2221" stroke="#D2B48C" stroke-linecap="round" stroke-linejoin="round"/>
</svg>
