<svg width="32" height="44" viewBox="0 0 32 44" fill="none" xmlns="http://www.w3.org/2000/svg">
<path fill-rule="evenodd" clip-rule="evenodd" d="M19.05 30.3877C18.6231 30.2882 18.2181 30.1133 17.8524 29.9766C17.4444 29.8242 17.0453 29.7167 16.6793 29.5411C16.7556 29.2552 17.0485 28.9837 17.2362 28.7433C17.4942 28.4131 18.9673 26.6332 19.05 26.3238C19.3092 26.4974 19.8608 26.9237 20.1506 27.0011C20.1427 27.3587 19.7565 28.3193 19.6178 28.6696L19.05 30.3877ZM29.0406 35.7217C29.0406 36.5378 29.9719 39.9141 29.9719 40.971C29.9719 41.8537 29.3286 42.0716 28.4479 42.0716H25.4846V36.0604C25.4846 35.1572 24.2146 35.3898 24.2146 35.9757V42.0716H12.3613C11.5233 42.0716 11.5233 43.3416 12.3613 43.3416H28.9559C30.3529 43.3416 31.3266 42.2653 31.3266 40.8864C31.3266 40.3735 30.8956 38.4351 30.7692 37.8031C30.5518 36.7162 30.458 35.1291 29.7179 35.1291C29.3556 35.1291 29.0406 35.39 29.0406 35.7217ZM11.176 27.0858C11.4968 26.8709 12.0042 26.4719 12.2766 26.4084L13.9341 28.7303C14.1381 29.0123 14.3285 29.2585 14.478 29.5411L12.3613 30.3877C11.9853 29.6772 11.3957 27.5774 11.176 27.0858ZM13.0386 24.6304C14.1331 24.8854 14.3832 25.0538 15.748 25.0538C16.5459 25.0538 17.7681 24.8799 18.288 24.6304C18.288 24.9437 18.3314 25.0893 18.2175 25.3219L16.3649 27.7027C16.1566 27.9834 15.7464 28.3832 15.6633 28.6944C15.3148 28.6014 14.4249 27.1561 14.2001 26.8556C13.4439 25.8446 13.0386 25.5074 13.0386 24.6304ZM8.5513 16.6718V12.4385C8.5513 12.1257 9.3282 11.9675 9.9087 10.8325C11.0563 8.58865 8.9971 8.33615 12.9769 8.85955C13.3882 8.91365 13.7605 8.86865 14.175 8.93135L20.6586 8.62845C21.0382 8.62845 21.0294 9.29295 21.0756 9.65075C21.3404 11.7011 22.7753 12.0068 22.7753 12.4385V17.0104C22.7753 20.3415 19.5591 23.6991 16.0866 23.6991C14.1825 23.6991 13.045 23.439 11.5297 22.4141L10.5592 21.6066C10.4014 21.4419 10.3221 21.314 10.1794 21.1397C10.0391 20.9685 9.9376 20.8398 9.8077 20.6647C9.0674 19.6664 8.5513 18.0731 8.5513 16.6718ZM24.1299 15.1478V12.6925C24.7111 12.7408 25.1819 13.3202 25.2039 13.8881C25.2375 14.7596 24.3667 15.0225 24.1299 15.1478ZM7.1967 12.6925V15.1478C6.6717 14.87 6.1941 14.717 6.1355 13.9406C6.0931 13.3792 6.6336 12.7393 7.1967 12.6925ZM7.7047 3.88715C7.7047 4.34365 8.0186 4.56445 8.382 4.56445C8.8712 4.56445 9.4518 3.78485 9.7561 3.48325C10.0909 3.15145 10.7947 2.66315 11.2329 2.42005C14.2087 0.768752 18.5836 1.03975 21.2322 3.22885C21.7198 3.63175 22.0146 3.93065 22.459 4.37265C24.3306 6.23465 24.7226 8.69865 24.7226 11.4225L23.7158 11.2439C22.845 11.1168 22.4231 9.91995 22.3387 9.06505C22.0668 6.31245 19.183 7.61895 17.3593 7.61505C16.9861 7.61425 16.4661 7.66665 16.2667 7.66155C16.0392 7.65585 15.5463 7.61145 15.1554 7.61235C13.2391 7.61655 11.8638 7.27375 10.668 7.27375C10.1444 7.27375 9.5973 7.64555 9.359 7.99675C8.8667 8.72215 9.0873 11.0762 7.5329 11.2507L6.604 11.4225C6.604 10.213 6.6475 9.20545 6.8631 8.21015C6.9703 7.71535 7.4975 6.74315 7.4028 6.30125C7.3065 5.85195 6.9656 5.83445 6.604 5.83445C5.916 5.83445 5.3475 8.75155 5.331 9.38735C5.3102 10.186 5.4088 11.0331 5.2989 11.8107C5.272 12.0018 5.2705 12.1568 5.2465 12.351C5.1786 12.9016 4.2612 13.8921 5.3143 15.3368C5.7839 15.981 6.3472 16.3045 7.1967 16.5024C7.4029 18.9805 7.9282 20.4179 9.2396 22.0795C9.7583 22.7368 10.5759 23.4073 11.2995 23.8296C11.8775 24.167 11.684 24.2885 11.684 24.9691C11.684 25.3698 9.9835 26.2584 9.6709 26.3427L5.6832 27.5197C4.3864 27.9344 3.2367 28.3201 2.489 29.5747C2.0302 30.3447 1.8637 31.2717 1.6863 32.1587C1.4964 33.1083 1.2977 34.1018 1.1077 35.0514C0.914 36.0203 0.7146 37.0173 0.5292 37.9441C0.3452 38.864 0 39.9439 0 40.8864C0 42.2749 0.9947 43.3416 2.3707 43.3416H9.398C10.2932 43.3416 10.2608 42.0716 9.398 42.0716H7.112V36.0604C7.112 35.2752 5.842 35.2799 5.842 35.9757V42.0716H2.8787C0.5956 42.0716 1.4254 40.2365 1.7568 38.5792C2.2106 36.3103 2.593 33.9526 3.1158 31.7255C3.5189 30.0083 3.9633 29.3897 5.702 28.8931C6.3862 28.6977 9.3829 27.692 9.9907 27.6784C10.0739 28.0358 10.225 28.4664 10.365 28.828C10.7226 29.7514 11.0361 31.7424 12.2766 31.7424C12.9429 31.7424 13.6217 31.3032 14.2231 31.0642C14.4349 30.9801 14.7025 30.9064 14.9013 30.8111L14.899 35.6393C14.8878 36.8379 15.5965 37.0003 16.0331 36.5149C16.3221 36.1936 16.1713 34.5886 16.1713 34.1131C16.1713 33.0124 16.1713 31.9117 16.1713 30.8111C16.9693 30.8775 18.1986 31.7424 18.9653 31.7424C20.2726 31.7424 20.5778 29.9485 20.9453 28.8965C21.05 28.597 21.3152 27.9282 21.3359 27.6784C21.8285 27.6894 26.0093 28.9555 26.5589 29.2287C28.8986 30.3919 27.7754 33.5204 29.1253 33.5204C30.5399 33.5204 29.0496 29.8513 28.7044 29.3693C28.0599 28.4693 27.0455 27.9097 25.9758 27.6106C24.7892 27.2788 23.6398 26.9154 22.5029 26.5961C21.2716 26.2503 21.201 26.1683 20.2521 25.545C19.5111 25.0583 19.6426 25.0241 19.6426 24.2071C19.6426 23.9528 19.8107 23.9559 20.0271 23.8296C21.1966 23.147 21.286 22.8449 22.0763 22.0688C23.3746 20.7937 24.1299 18.6659 24.1299 16.5024C25.1637 16.4164 26.5006 15.2526 26.5006 14.1318C26.5006 13.131 26.3995 13.3276 26.1337 12.5513C25.9987 12.157 26.0767 11.5425 26.0773 11.0838C26.0807 8.37465 25.4552 5.75325 23.6878 3.73655C22.846 2.77595 21.906 1.95215 20.7705 1.31995C17.1611 -0.689548 12.1692 -0.447848 9.039 2.34275C8.7579 2.59325 7.7047 3.51755 7.7047 3.88715Z" fill="#D2B48C"/>
</svg>
