<svg width="32" height="45" viewBox="0 0 32 45" fill="none" xmlns="http://www.w3.org/2000/svg">
<path d="M11.2634 44C7.93688 42.5035 4.61496 40.9956 1.27919 39.5198C0.393347 39.1279 -0.00343791 38.5344 2.24302e-05 37.5581C0.0230913 31.774 0.0230913 25.9894 2.24302e-05 20.2045C2.24302e-05 19.4677 0.237632 18.9166 0.817815 18.4605C1.47182 17.946 2.0866 17.3743 2.72331 16.8415C2.97149 16.6453 3.16994 16.394 3.30274 16.1079C3.43555 15.8217 3.49901 15.5087 3.48804 15.1938C3.47766 11.1272 3.48804 7.05833 3.48804 2.99406C3.48804 1.78865 3.79601 1.35552 4.91831 0.945312C5.7684 0.635937 6.61272 0.31625 7.45589 0H8.23908C8.69354 0.324271 9.18606 0.436562 9.75702 0.433125C13.5903 0.411736 17.4232 0.411736 21.2557 0.433125C21.8267 0.433125 22.3203 0.326562 22.7748 0H23.5534C24.4542 0.334583 25.3551 0.666874 26.2547 1.00375C27.1544 1.34062 27.5235 1.85167 27.5235 2.82219C27.5235 4.82663 27.5235 6.83146 27.5235 8.83667C27.5301 8.99149 27.5111 9.14634 27.467 9.295C27.4265 9.43506 27.3346 9.55496 27.2095 9.6311C27.0844 9.70723 26.9351 9.73408 26.7911 9.70635C26.6449 9.70089 26.5063 9.64046 26.4033 9.53728C26.3003 9.43409 26.2406 9.29588 26.2363 9.15062C26.2109 8.85156 26.2224 8.54906 26.2224 8.24885C26.2224 6.45906 26.2132 4.66927 26.2282 2.87948C26.2282 2.50365 26.099 2.30656 25.7403 2.19198C25.0044 1.94792 24.2731 1.68552 23.5488 1.3899C23.1589 1.23292 22.9513 1.32458 22.7598 1.69125C21.3664 4.33927 19.9569 6.97927 18.5532 9.62271C17.0922 12.3796 15.6311 15.1384 14.1701 17.8991C14.0398 18.1501 13.9703 18.4279 13.9671 18.7103C13.9556 25.0387 13.9613 31.3683 13.9521 37.6979C13.9423 37.8593 13.9724 38.0206 14.0397 38.1678C14.1071 38.315 14.2096 38.4436 14.3385 38.5424C15.8703 39.8257 17.3901 41.1243 18.8981 42.4382C19.191 42.6926 19.4287 42.7258 19.7828 42.5597C20.9524 42.0085 22.1381 41.4918 23.3192 40.9635C23.8187 40.7412 24.1716 40.8283 24.3504 41.2076C24.5292 41.5869 24.3585 41.918 23.8602 42.1437C22.4891 42.7671 21.1161 43.3866 19.7412 44.0023H18.9661C18.5809 43.7376 18.176 43.4981 17.8127 43.2002C17.0364 42.5666 16.2844 41.9066 15.5058 41.242C15.1701 41.5273 14.8633 41.8046 14.538 42.0601C13.711 42.7109 12.8748 43.3526 12.042 43.9977L11.2634 44ZM14.4931 40.386C14.0894 40.0423 13.726 39.7192 13.35 39.4132C12.8575 39.0133 12.6452 38.508 12.6452 37.8744C12.6533 31.4325 12.6452 24.9895 12.6614 18.5465C12.6698 18.1631 12.7623 17.7861 12.9325 17.4419C13.3823 16.516 13.8552 15.5971 14.3858 14.7148C14.7041 14.1854 14.6776 13.7821 14.3858 13.239C12.3165 9.41073 10.283 5.56188 8.25292 1.71417C8.04992 1.32802 7.83999 1.23521 7.43513 1.40135C6.75806 1.6775 6.0683 1.93187 5.36931 2.14958C4.92985 2.29167 4.77875 2.52083 4.77875 2.98719C4.7972 7.01021 4.77875 11.0332 4.79835 15.0562C4.80527 16.2135 4.41656 17.1417 3.51918 17.8761C2.86249 18.4109 2.22002 18.9643 1.59178 19.5365C1.4379 19.6748 1.34163 19.8652 1.32187 20.0704C1.30803 25.9524 1.30803 31.837 1.32187 37.7243C1.33406 37.8289 1.3701 37.9295 1.42727 38.0182C1.48443 38.107 1.5612 38.1816 1.65176 38.2365C4.89524 39.7123 8.14527 41.1728 11.4018 42.6181C11.5345 42.6777 11.7744 42.6823 11.8724 42.6021C12.7502 41.8859 13.6061 41.1457 14.4988 40.386H14.4931ZM15.5058 12.5893L21.2649 1.74052H17.8357C17.8357 2.26646 17.8357 2.76375 17.8357 3.26219C17.8265 4.01729 17.394 4.46875 16.6362 4.48479C15.8783 4.50083 15.1367 4.50083 14.3881 4.48479C13.6118 4.4699 13.1793 4.015 13.1724 3.23354C13.1724 2.73854 13.1724 2.2424 13.1724 1.73365H9.73856C11.6602 5.35104 13.5553 8.91917 15.5058 12.5893ZM16.522 1.73937H14.4942V3.15677H16.5197L16.522 1.73937Z" fill="white"/>
<path d="M27.5211 13.8211C27.5211 14.3069 27.5281 14.7939 27.5211 15.2809C27.512 15.568 27.5705 15.8533 27.6918 16.1141C27.8131 16.3748 27.994 16.6039 28.2201 16.783C28.8995 17.356 29.565 17.9529 30.2548 18.5167C30.4952 18.6989 30.6884 18.9354 30.8184 19.2066C30.9484 19.4778 31.0114 19.7759 31.0022 20.0762C30.9922 25.9581 30.9922 31.8424 31.0022 37.7289C31.0022 38.539 30.6562 39.0947 29.9238 39.4247C28.9537 39.8601 27.9848 40.2978 27.0125 40.7275C26.5453 40.9349 26.1705 40.8421 26.0055 40.4869C25.829 40.1088 26.0055 39.7593 26.4819 39.5416C27.4254 39.1165 28.3666 38.6868 29.3159 38.2754C29.438 38.2359 29.5429 38.1563 29.6133 38.0497C29.6837 37.943 29.7155 37.8158 29.7034 37.6888C29.6965 31.8336 29.7035 25.9772 29.6873 20.122C29.6746 19.9024 29.5796 19.6955 29.4209 19.5422C28.7645 18.9407 28.0817 18.3677 27.4012 17.7925C26.6065 17.1211 26.2027 16.28 26.2166 15.2362C26.2293 14.2485 26.2166 13.2608 26.2166 12.273C26.2166 11.762 26.4473 11.471 26.8418 11.4549C27.2362 11.4389 27.5154 11.7586 27.5188 12.2742C27.5223 12.7898 27.5211 13.3054 27.5211 13.8211Z" fill="white"/>
<path d="M27.4537 31.0829C27.4537 31.8552 27.4629 32.6275 27.4537 33.3998C27.4318 34.7656 26.4744 35.7476 25.0949 35.7957C24.2598 35.8244 23.4236 35.8255 22.5896 35.7957C21.2124 35.7465 20.2458 34.7828 20.2204 33.4009C20.1893 31.7853 20.2008 30.1674 20.2204 28.5518C20.2274 27.7783 20.6588 27.3716 21.4477 27.3658C23.0464 27.3559 24.6451 27.3559 26.2437 27.3658C27.0511 27.3716 27.4537 27.7864 27.4595 28.5953C27.4583 29.4238 27.4537 30.2499 27.4537 31.0829ZM21.5458 28.6973C21.5458 30.3485 21.5308 31.9492 21.5538 33.5511C21.5607 34.0839 21.9967 34.4677 22.5562 34.4769C23.3486 34.4964 24.141 34.4906 24.9334 34.4849C25.7524 34.4849 26.1492 34.0816 26.1515 33.268C26.1515 31.8655 26.1515 30.4626 26.1515 29.0594C26.1515 28.9379 26.1342 28.8165 26.1249 28.6973H21.5458Z" fill="white"/>
<path d="M21.1512 17.073C20.4902 17.073 19.8282 17.073 19.1661 17.073C18.6274 17.073 18.3229 16.8347 18.3137 16.4313C18.3044 16.028 18.6159 15.7633 19.1407 15.761C20.4925 15.7541 21.8444 15.7541 23.1962 15.761C23.7222 15.761 24.0336 16.0234 24.0278 16.4267C24.0221 16.8301 23.7164 17.0684 23.1789 17.073C22.503 17.073 21.8271 17.073 21.1512 17.073Z" fill="white"/>
<path d="M16.0122 21.0204C15.839 21.0112 15.6765 20.9346 15.5597 20.8072C15.4429 20.6798 15.3813 20.5119 15.3882 20.3398C15.3953 20.1748 15.4662 20.0189 15.5861 19.9045C15.706 19.7901 15.8656 19.726 16.0318 19.7256C16.2052 19.7297 16.3703 19.8002 16.4926 19.9223C16.6149 20.0444 16.6849 20.2088 16.6882 20.381C16.6782 20.5529 16.6028 20.7146 16.4773 20.8333C16.3518 20.952 16.1855 21.0189 16.0122 21.0204Z" fill="white"/>
<path d="M16.6881 25.2829C16.6781 25.4547 16.6025 25.6164 16.4767 25.7347C16.3508 25.8531 16.1843 25.9194 16.011 25.92C15.8379 25.9105 15.6756 25.8336 15.5592 25.7059C15.4428 25.5783 15.3817 25.4102 15.3893 25.2382C15.3959 25.0731 15.4669 24.9171 15.5872 24.8031C15.7075 24.6891 15.8678 24.6261 16.0341 24.6275C16.2074 24.631 16.3725 24.7014 16.4946 24.8237C16.6166 24.946 16.686 25.1107 16.6881 25.2829Z" fill="white"/>
<path d="M16.0449 29.5303C16.2179 29.536 16.3819 29.6083 16.5022 29.7318C16.6226 29.8554 16.6898 30.0207 16.6897 30.1926C16.6768 30.3643 16.5988 30.5248 16.4714 30.6416C16.344 30.7584 16.1767 30.8227 16.0034 30.8217C15.838 30.8094 15.6833 30.736 15.5697 30.6159C15.4561 30.4959 15.3919 30.3379 15.3898 30.1731C15.3882 30.0876 15.4041 30.0026 15.4365 29.9234C15.469 29.8442 15.5173 29.7723 15.5786 29.7122C15.6399 29.6521 15.7128 29.605 15.793 29.5737C15.8731 29.5424 15.9588 29.5277 16.0449 29.5303Z" fill="white"/>
<path d="M16.6891 35.051C16.6858 35.2225 16.6181 35.3867 16.4992 35.5111C16.3803 35.6356 16.2189 35.7114 16.0467 35.7236C15.8806 35.7223 15.7212 35.659 15.6 35.5463C15.4788 35.4336 15.4048 35.2797 15.3926 35.1152C15.3842 35.0297 15.3936 34.9435 15.4201 34.8617C15.4467 34.78 15.4898 34.7046 15.5469 34.6401C15.604 34.5756 15.6739 34.5235 15.7521 34.487C15.8303 34.4504 15.9153 34.4303 16.0017 34.4277C16.1756 34.4214 16.3451 34.4832 16.4736 34.5998C16.6022 34.7163 16.6796 34.8784 16.6891 35.051Z" fill="white"/>
<path d="M9.47771 28.695H4.88585C4.87431 28.8199 4.85586 28.9299 4.85586 29.0388C4.85586 30.4565 4.85586 31.8743 4.85586 33.2921C4.85586 34.0724 5.26418 34.4769 6.05544 34.4838C6.79057 34.4906 7.5257 34.4906 8.26083 34.4838C9.08439 34.4838 9.46041 34.0953 9.47425 33.2658C9.46629 33.0513 9.47284 32.8365 9.49386 32.6229C9.54692 32.27 9.75339 32.05 10.1329 32.05C10.2129 32.0433 10.2935 32.0528 10.3698 32.0778C10.446 32.1028 10.5164 32.143 10.5766 32.1957C10.6369 32.2485 10.6858 32.3129 10.7203 32.3849C10.7548 32.4569 10.7744 32.5352 10.7776 32.6149C11.0464 34.7164 9.7926 35.8634 8.12472 35.8049C7.43266 35.7809 6.74059 35.8049 6.04852 35.7992C4.54904 35.782 3.56169 34.8012 3.55362 33.3139C3.54593 31.7395 3.54593 30.1647 3.55362 28.5896C3.55362 27.7875 3.96194 27.3681 4.77396 27.3636C6.37495 27.3544 7.97516 27.3544 9.5746 27.3636C10.3613 27.3636 10.7684 27.7806 10.795 28.561C10.8101 28.8901 10.8074 29.2198 10.7869 29.5487C10.758 29.952 10.4812 30.211 10.1271 30.2064C9.773 30.2018 9.50771 29.9371 9.48002 29.5326C9.46272 29.2679 9.47771 28.9987 9.47771 28.695Z" fill="white"/>
</svg>
