<svg width="31" height="45" viewBox="0 0 31 45" fill="none" xmlns="http://www.w3.org/2000/svg">
<path d="M18.8029 0C19.9944 0.8614 21.1153 1.79413 22.0022 2.99433C22.114 3.12113 22.2571 3.21579 22.417 3.26866C24.014 3.89688 25.6014 4.5539 27.2201 5.12039C28.0009 5.39473 28.4865 5.90498 28.8442 6.59355C29.4391 7.75289 29.8119 9.01489 29.9433 10.3135C30.146 12.1735 30.2711 14.043 30.3799 15.9126C30.5418 18.6984 30.6207 21.4884 30.8057 24.2728C31.0165 27.4482 31.0233 30.625 30.9539 33.8031C30.8873 36.8797 30.7989 39.9577 30.7241 43.0344C30.7037 43.8793 30.5676 44.0261 29.7528 43.9849C28.4062 43.9172 27.0596 43.8423 25.7129 43.76C24.9906 43.7174 24.8968 43.6104 24.8682 42.8821C24.8682 42.8272 24.856 42.771 24.8424 42.6558C24.0629 42.8629 23.308 43.0851 22.5435 43.2621C21.4662 43.5103 20.3889 43.7654 19.2994 43.9479C18.1622 44.1344 17.123 43.9177 16.3503 42.9425C15.8933 42.3609 15.877 41.6408 15.7423 40.9577C15.6809 40.547 15.5761 40.1442 15.4295 39.7561C15.3152 40.4049 15.2077 41.055 15.0826 41.7025C14.8432 42.937 13.9536 43.76 12.7117 43.9342C11.6725 44.0796 10.6713 43.8244 9.68379 43.6091C8.49493 43.3526 7.31968 43.0289 6.14715 42.734C5.94719 43.7133 5.94719 43.727 4.91205 43.7929C3.62253 43.8752 2.32758 43.93 1.04079 43.9931C0.464042 44.0192 0.257284 43.8258 0.247763 43.2538C0.155266 38.2006 0.0192425 33.1475 0.000199102 28.0943C-0.00796237 25.8996 0.236881 23.6926 0.349781 21.4925C0.438197 19.7628 0.534775 18.0332 0.567421 16.3021C0.61367 13.8661 0.711606 11.4396 1.26115 9.05567C1.51007 7.9803 1.80524 6.90903 2.49897 6.0298C2.75853 5.69693 3.09535 5.4336 3.47971 5.26305C5.15689 4.57036 6.85855 3.93528 8.54798 3.27277C8.70788 3.2199 8.85103 3.12525 8.96286 2.99844C9.84702 1.79961 10.9706 0.866888 12.1622 0.0054878L18.8029 0ZM4.82635 41.2169C6.85448 41.7203 8.85676 42.2237 10.8618 42.7134C11.1805 42.7825 11.5037 42.8283 11.8289 42.8506C12.9783 42.9562 13.8801 42.4391 14.0855 41.1579C14.6228 37.8125 15.2268 34.4793 15.3574 31.0831C15.3859 30.3328 15.3574 29.5825 15.3574 28.824C14.397 29.3109 13.6829 29.2574 13.1334 28.6662C12.9004 28.4121 12.7547 28.0892 12.7177 27.7451C12.6807 27.401 12.7544 27.0541 12.928 26.7555C13.3524 26.0231 13.9835 25.8653 15.2295 26.1973C15.1819 25.5937 15.2105 24.9957 14.714 24.5321C14.5092 24.3158 14.3273 24.0786 14.1712 23.8243C12.7566 21.797 11.7636 19.5543 10.9066 17.2404C9.76685 14.1515 8.83166 10.9897 8.10726 7.77592C8.0066 7.33836 8.08414 7.027 8.47181 6.79107C8.70577 6.65391 8.91933 6.47285 9.10976 6.33568C8.75066 6.14228 8.29362 6.04489 8.13991 5.7733C7.9862 5.50171 8.10318 5.03947 8.10318 4.62248L4.04557 6.19989C4.06461 6.31511 4.07005 6.38506 4.08774 6.45227C4.68761 8.77449 5.27387 11.1008 5.89414 13.4162C6.85312 16.9921 7.7672 20.5762 7.93451 24.3016C8.01341 26.0244 7.96172 27.7308 7.53868 29.4165C7.41762 29.8925 7.25575 30.3589 7.09796 30.876L9.04311 30.7237C9.6525 30.6785 10.2605 30.6291 10.8686 30.5948C10.9366 30.5864 11.0055 30.5923 11.0712 30.612C11.1368 30.6317 11.1977 30.6649 11.2501 30.7094C11.3024 30.754 11.3451 30.809 11.3754 30.8709C11.4057 30.9328 11.423 31.0004 11.4263 31.0694C11.4657 31.3794 11.2902 31.5865 10.9923 31.6633C10.8812 31.6863 10.7684 31.6996 10.655 31.7031L7.09116 31.9774C6.8776 31.9939 6.68308 32.0049 6.61371 32.2902C5.84782 35.2285 5.25104 38.2091 4.82635 41.2169ZM21.7954 6.30002C22.0457 6.47833 22.2633 6.65391 22.5 6.7993C22.87 7.027 22.9557 7.3315 22.8578 7.74986C22.224 10.5346 21.4389 13.282 20.5059 15.9798C19.4435 18.9974 18.2561 21.9369 16.2987 24.5005C16.2169 24.6431 16.188 24.8103 16.217 24.9724C16.6251 27.9681 16.5571 30.9651 16.2715 33.965C16.1885 34.8428 16.0538 35.7399 16.149 36.604C16.3272 38.2061 16.6646 39.7904 16.9244 41.3829C17.093 42.4171 17.6494 42.9246 18.6995 42.8752C19.265 42.8423 19.8261 42.7555 20.3753 42.616C22.2865 42.151 24.184 41.6558 26.0394 41.1881C26.0659 41.1315 26.0864 41.0722 26.1006 41.0112C25.6848 38.0685 25.0911 35.1543 24.3227 32.2847C24.2897 32.2152 24.2412 32.1543 24.1811 32.1067C24.1209 32.0591 24.0507 32.0261 23.9759 32.0103C23.4699 31.9418 22.9584 31.9184 22.4497 31.8732C21.6716 31.8128 20.8936 31.7593 20.1155 31.6894C19.7306 31.6551 19.4803 31.4054 19.5238 31.0941C19.5714 30.7457 19.789 30.5701 20.1441 30.5893C20.3848 30.603 20.6256 30.6209 20.8664 30.6401L23.8739 30.8732C23.8167 30.6853 23.765 30.555 23.7378 30.4206C23.5134 29.3329 23.1937 28.2534 23.0917 27.1533C22.8197 24.2221 23.1638 21.3183 23.8167 18.4666C24.4819 15.5587 25.2681 12.6796 26.0054 9.78951C26.3073 8.60303 26.6175 7.41929 26.9317 6.20126L22.8564 4.62111C22.9394 5.81994 22.9394 5.81994 21.7954 6.30002ZM29.6127 42.8602C29.6127 42.7134 29.6277 42.5748 29.6318 42.4377C29.7039 39.4461 29.8113 36.4559 29.8385 33.4643C29.8617 30.7896 29.8467 28.1148 29.7569 25.4387C29.6549 22.3786 29.4658 19.3212 29.2849 16.2651C29.1693 14.2968 29.0442 12.3271 28.8428 10.367C28.7285 9.22491 28.3998 8.11519 27.8743 7.09695C27.8263 7.19785 27.7849 7.30187 27.7506 7.40832C26.7141 11.7235 25.6807 16.0402 24.6506 20.3581C24.6152 20.5217 24.6289 20.6922 24.69 20.8478C25.3606 22.4691 25.634 24.1823 25.6844 25.9106C25.7428 27.8817 25.6449 29.8555 25.6245 31.8279C25.6044 32.2404 25.6245 32.6539 25.6844 33.0624C26.1618 35.6027 26.6692 38.1375 27.1534 40.6737C27.3915 41.9219 27.2813 41.9507 26.223 42.2525C26.1047 42.2868 26.0231 42.4555 25.9238 42.5611L26.004 42.6791L29.6127 42.8602ZM3.13148 7.14084L2.99546 7.12438C2.77918 7.79924 2.52209 8.46312 2.35478 9.15032C1.82293 11.345 1.71547 13.5876 1.66106 15.8371C1.61617 17.7259 1.52503 19.6133 1.43526 21.5007C1.32508 23.731 1.07887 25.96 1.08567 28.1889C1.10064 33.0144 1.23938 37.8385 1.32916 42.6626C1.33791 42.7293 1.35435 42.7946 1.37813 42.8574C2.37791 42.8067 3.35593 42.7655 4.33394 42.7038C4.55158 42.6901 4.93517 42.6297 4.95149 42.5378C5.02086 42.1551 4.62639 42.2319 4.421 42.1551C3.71367 41.8931 3.60485 41.793 3.74087 41.066C4.18975 38.608 4.66584 36.1541 5.12697 33.6975C5.21674 33.2243 5.35276 32.7456 5.3446 32.271C5.32012 30.7978 5.18001 29.326 5.18818 27.8529C5.19906 25.7048 5.31196 23.5486 6.05057 21.5076C6.30428 20.8167 6.33663 20.0631 6.14307 19.3527C5.34868 16.0927 4.55611 12.8323 3.76536 9.57142C3.5654 8.75803 3.34232 7.95149 3.13148 7.14084ZM15.4798 20.9274C16.5762 15.3036 17.9758 9.75248 18.758 4.05599H12.1948C12.9878 9.75385 14.3807 15.3063 15.4798 20.9274ZM9.19138 5.10393C9.64568 5.18507 10.0956 5.28945 10.5394 5.41667C10.7529 5.488 11.0345 5.67729 11.0753 5.85972C11.1161 6.04215 10.9393 6.34117 10.7733 6.48519C10.3554 6.82869 9.91703 7.14614 9.46071 7.43575C9.37314 7.4807 9.30505 7.55658 9.26942 7.64892C9.2338 7.74126 9.23313 7.8436 9.26755 7.93641C10.3204 12.2599 11.58 16.5134 13.5142 20.5323C13.804 21.1345 14.1427 21.7133 14.4596 22.3031C14.4922 22.2623 14.5153 22.2146 14.527 22.1635C14.5388 22.1125 14.539 22.0594 14.5276 22.0082C13.8353 18.5914 13.1238 15.1829 12.4532 11.7537C11.9935 9.38487 11.5827 7.00505 11.2005 4.62111C11.0794 3.87219 11.1188 3.0972 11.0848 2.3277C10.168 3.03273 9.40766 4.13692 9.19138 5.10393ZM19.8271 2.23306C19.9319 4.41536 19.5673 6.43856 19.1661 8.45352C18.2669 12.9608 17.3474 17.4639 16.4388 21.9698C16.4292 22.0693 16.4292 22.1694 16.4388 22.2688C16.818 21.7164 17.1554 21.1359 17.4481 20.5323C19.381 16.5106 20.6351 12.2571 21.6934 7.93915C21.7288 7.84669 21.7291 7.74428 21.6942 7.65162C21.6593 7.55895 21.5917 7.48256 21.5043 7.43712C21.048 7.14798 20.6096 6.83099 20.1917 6.48794C20.023 6.34391 19.8475 6.04763 19.8856 5.8652C19.9237 5.68277 20.2039 5.48937 20.4161 5.41804C20.8528 5.27265 21.3152 5.20544 21.8131 5.09433C21.4662 3.93528 20.7276 3.10132 19.8271 2.23306ZM12.154 2.88185H18.8042C18.7185 2.37434 18.6464 1.91346 18.5607 1.45533C18.5104 1.18923 18.3445 1.10007 18.0711 1.10144C16.3408 1.11241 14.611 1.11241 12.8817 1.10144C12.6097 1.10144 12.4464 1.19883 12.3975 1.46082C12.3077 1.91895 12.2383 2.37983 12.154 2.88185ZM6.70077 23.5623C6.31174 25.4429 6.23693 27.3426 6.32126 29.2533C6.8776 27.3906 6.95649 25.4867 6.70077 23.5623ZM24.2479 23.5623C23.999 25.4826 24.0684 27.392 24.6342 29.2574C24.7145 27.3467 24.6519 25.4442 24.2547 23.5637L24.2479 23.5623ZM14.3943 27.0038H14.212C14.076 27.189 13.8774 27.3604 13.838 27.5648C13.7836 27.8515 13.9944 28.0531 14.2855 28.06C14.5766 28.0668 14.8296 27.8762 14.7793 27.5676C14.7453 27.3645 14.5331 27.1917 14.4011 27.0052L14.3943 27.0038Z" fill="white"/>
</svg>
