<svg width="39" height="45" viewBox="0 0 39 45" fill="none" xmlns="http://www.w3.org/2000/svg">
<path d="M28.0909 0.722412C28.2629 0.722412 28.4349 0.722412 28.6069 0.722412C28.8112 0.893454 29.037 1.05381 29.2197 1.24623C30.2196 2.22972 31.1979 3.2239 32.1977 4.1967C32.359 4.35705 32.574 4.49602 32.7998 4.58154C34.4769 5.22295 36.1648 5.84297 37.8419 6.47369C38.53 6.73025 38.6375 6.8906 38.6375 7.60684C38.6375 19.5584 38.6375 31.5206 38.6483 43.4721C38.6483 43.9318 38.5407 44.2846 38.1322 44.5091C25.7687 44.5091 13.4052 44.5091 1.05242 44.5091C0.665388 44.2846 0.536377 43.9532 0.536377 43.5149C0.547128 31.5313 0.547128 19.5477 0.547128 7.56408C0.547128 6.90129 0.665387 6.73025 1.29969 6.49507C2.6973 5.97125 4.09492 5.41537 5.51404 4.93431C6.34185 4.64568 7.04066 4.23946 7.64271 3.57667C8.37377 2.77491 9.16934 2.03729 9.9434 1.2783C10.1477 1.07519 10.3734 0.914834 10.5885 0.722412C10.7605 0.722412 10.9325 0.722412 11.1045 0.722412C11.5238 1.03243 11.9323 1.36382 12.3731 1.64176C15.4801 3.51253 18.8451 4.01496 22.3929 3.36287C24.5001 2.95664 26.4245 2.11213 28.0909 0.722412ZM6.80414 6.00332C5.33127 6.55921 3.8799 7.11509 2.41778 7.62822C2.0845 7.74581 2.00925 7.90616 2.00925 8.24825C2.02 19.6867 2.02 31.1358 2.02 42.5742C2.02 42.7238 2.02 42.8735 2.02 43.0125C7.67496 43.0125 13.2547 43.0125 18.8236 43.0125C18.8236 32.3865 18.8236 21.8033 18.8236 11.1666C18.6946 11.2735 18.6194 11.327 18.5441 11.4018C16.953 12.8129 15.3618 14.224 13.7707 15.6351C13.0827 16.2444 12.6741 16.1803 12.2118 15.3892C10.4917 12.396 8.7823 9.41347 7.06216 6.42024C6.97616 6.29196 6.89015 6.16368 6.80414 6.00332ZM37.1861 43.0338C37.1861 42.8414 37.1861 42.6811 37.1861 42.5314C37.1861 31.1144 37.1861 19.708 37.1861 8.29101C37.1861 8.20549 37.2076 8.10927 37.1754 8.03444C37.1216 7.91685 37.0679 7.76719 36.9604 7.72443C35.4445 7.14717 33.9286 6.58059 32.3805 6.00332C32.2837 6.16368 32.1977 6.29196 32.1225 6.42024C30.4023 9.41347 28.6929 12.396 26.9728 15.3892C26.5213 16.1803 26.1127 16.2444 25.4139 15.6244C23.8228 14.2133 22.2317 12.8022 20.6405 11.3911C20.5653 11.3163 20.4685 11.2629 20.3503 11.1773C20.3503 21.8247 20.3503 32.4079 20.3503 43.0232C25.973 43.0338 31.5419 43.0338 37.1861 43.0338ZM8.07275 5.24433C9.77139 8.21618 11.47 11.1773 13.1902 14.1706C14.9426 12.6098 16.6842 11.0811 18.4366 9.52037C15.6414 7.37166 12.8891 5.26571 10.1584 3.18114C9.44886 3.87599 8.7823 4.53878 8.07275 5.24433ZM26.0052 14.1599C27.7254 11.1666 29.424 8.20548 31.0904 5.28709C30.3808 4.58154 29.6928 3.90806 28.9832 3.20252C26.274 5.2764 23.5325 7.38235 20.748 9.50968C22.5219 11.0811 24.2528 12.6098 26.0052 14.1599ZM25.4784 4.03634C21.5544 5.44744 17.641 5.43675 13.6525 3.95082C13.76 4.05772 13.7815 4.0898 13.8137 4.12187C15.6629 5.53296 17.5013 6.94405 19.3397 8.36584C19.5439 8.52619 19.6622 8.49412 19.8557 8.35515C20.8986 7.5427 21.9629 6.74094 23.0057 5.92849C23.8335 5.29778 24.6614 4.66706 25.4784 4.03634Z" fill="white"/>
<path d="M14.4695 31.3174C14.5125 30.9112 14.8565 30.6333 15.2651 30.6654C15.6736 30.6974 15.9531 31.0288 15.9101 31.4564C15.8779 31.8413 15.5339 32.1299 15.1468 32.1085C14.7598 32.0657 14.4373 31.6916 14.4695 31.3174Z" fill="white"/>
<path d="M15.2221 36.4914C15.6306 36.5021 15.9316 36.8335 15.9209 37.2504C15.8994 37.6674 15.5769 37.956 15.1576 37.9346C14.7705 37.9132 14.4588 37.5818 14.4695 37.2077C14.4695 36.8121 14.835 36.47 15.2221 36.4914Z" fill="white"/>
<path d="M15.921 25.5449C15.9102 25.9511 15.5769 26.2825 15.1791 26.2611C14.7921 26.2397 14.4481 25.8763 14.4696 25.5021C14.4911 25.1173 14.8029 24.8286 15.2006 24.8286C15.6199 24.8179 15.9317 25.128 15.921 25.5449Z" fill="white"/>
<path d="M15.9209 19.6866C15.9209 20.1036 15.6091 20.4029 15.1898 20.4029C14.7813 20.4029 14.448 20.0608 14.4695 19.6653C14.4802 19.2911 14.8135 18.9704 15.1898 18.9597C15.5983 18.9597 15.9209 19.2804 15.9209 19.6866Z" fill="white"/>
<path d="M29.1229 21.1513C30.5098 21.1513 31.8967 21.1513 33.2835 21.1513C34.0038 21.1513 34.2618 21.4079 34.2618 22.1348C34.2618 24.1766 34.2618 26.2077 34.2618 28.2495C34.2618 28.6558 34.1113 28.9444 33.7673 29.1689C32.4019 30.0562 31.0473 30.9541 29.7035 31.8628C29.2842 32.1407 28.9402 32.1407 28.5316 31.8628C27.1878 30.9541 25.8224 30.0562 24.4678 29.1582C24.1238 28.9337 23.984 28.6451 23.984 28.2282C23.9948 26.1863 23.984 24.1552 23.9948 22.1134C23.9948 21.3865 24.242 21.1406 24.9731 21.1406C26.3492 21.1513 27.7361 21.1513 29.1229 21.1513ZM25.5214 22.6372C25.4999 22.68 25.4784 22.7014 25.4784 22.7334C25.4676 24.4439 25.4676 26.1543 25.4676 27.854C25.4676 27.9502 25.5321 28.0892 25.6074 28.1426C26.7792 28.9337 27.9511 29.7141 29.1229 30.4945C30.241 29.7462 31.3269 29.0192 32.4342 28.303C32.6922 28.1319 32.7997 27.9609 32.789 27.6509C32.7782 26.1436 32.7782 24.6363 32.7782 23.1183C32.7782 22.9686 32.7782 22.8083 32.7782 22.6372C30.327 22.6372 27.9188 22.6372 25.5214 22.6372Z" fill="white"/>
</svg>
