<svg width="28" height="45" viewBox="0 0 28 45" fill="none" xmlns="http://www.w3.org/2000/svg">
<path d="M11.2634 44C7.93688 42.5035 4.61496 40.9956 1.27919 39.5198C0.393347 39.1279 -0.00343791 38.5344 2.24302e-05 37.5581C0.0230913 31.774 0.0230913 25.9894 2.24302e-05 20.2045C2.24302e-05 19.4677 0.237632 18.9166 0.817815 18.4605C1.47182 17.946 2.0866 17.3743 2.72331 16.8415C2.97149 16.6453 3.16994 16.394 3.30274 16.1079C3.43555 15.8217 3.49901 15.5087 3.48804 15.1938C3.47766 11.1272 3.48804 7.05833 3.48804 2.99406C3.48804 1.78865 3.79601 1.35552 4.91831 0.945312C5.7684 0.635937 6.61272 0.31625 7.45589 0H8.23908C8.69354 0.324271 9.18606 0.436562 9.75702 0.433125C13.5903 0.411736 17.4232 0.411736 21.2557 0.433125C21.8267 0.433125 22.3203 0.326562 22.7748 0H23.5534C24.4542 0.334583 25.3551 0.666874 26.2547 1.00375C27.1544 1.34062 27.5235 1.85167 27.5235 2.82219C27.5235 4.82663 27.5235 6.83146 27.5235 8.83667C27.5301 8.99149 27.5111 9.14634 27.467 9.295C27.4265 9.43506 27.3346 9.55496 27.2095 9.6311C27.0844 9.70723 26.9351 9.73408 26.7911 9.70635C26.6449 9.70089 26.5063 9.64046 26.4033 9.53728C26.3003 9.43409 26.2406 9.29588 26.2363 9.15062C26.2109 8.85156 26.2224 8.54906 26.2224 8.24885C26.2224 6.45906 26.2132 4.66927 26.2282 2.87948C26.2282 2.50365 26.099 2.30656 25.7403 2.19198C25.0044 1.94792 24.2731 1.68552 23.5488 1.3899C23.1589 1.23292 22.9513 1.32458 22.7598 1.69125C21.3664 4.33927 19.9569 6.97927 18.5532 9.62271C17.0922 12.3796 15.6311 15.1384 14.1701 17.8991C14.0398 18.1501 13.9703 18.4279 13.9671 18.7103C13.9556 25.0387 13.9613 31.3683 13.9521 37.6979C13.9423 37.8593 13.9724 38.0206 14.0397 38.1678C14.1071 38.315 14.2096 38.4436 14.3385 38.5424C15.8703 39.8257 17.3901 41.1243 18.8981 42.4382C19.191 42.6926 19.4287 42.7258 19.7828 42.5597C20.9524 42.0085 22.1381 41.4918 23.3192 40.9635C23.8187 40.7412 24.1716 40.8283 24.3504 41.2076C24.5292 41.5869 24.3585 41.918 23.8602 42.1437C22.4891 42.7671 21.1161 43.3866 19.7412 44.0023H18.9661C18.5809 43.7376 18.176 43.4981 17.8127 43.2002C17.0364 42.5666 16.2844 41.9066 15.5058 41.242C15.1701 41.5273 14.8633 41.8046 14.538 42.0601C13.711 42.7109 12.8748 43.3526 12.042 43.9977L11.2634 44ZM14.4931 40.386C14.0894 40.0423 13.726 39.7192 13.35 39.4132C12.8575 39.0133 12.6452 38.508 12.6452 37.8744C12.6533 31.4325 12.6452 24.9895 12.6614 18.5465C12.6698 18.1631 12.7623 17.7861 12.9325 17.4419C13.3823 16.516 13.8552 15.5971 14.3858 14.7148C14.7041 14.1854 14.6776 13.7821 14.3858 13.239C12.3165 9.41073 10.283 5.56188 8.25292 1.71417C8.04992 1.32802 7.83999 1.23521 7.43513 1.40135C6.75806 1.6775 6.0683 1.93187 5.36931 2.14958C4.92985 2.29167 4.77875 2.52083 4.77875 2.98719C4.7972 7.01021 4.77875 11.0332 4.79835 15.0562C4.80527 16.2135 4.41656 17.1417 3.51918 17.8761C2.86249 18.4109 2.22002 18.9643 1.59178 19.5365C1.4379 19.6748 1.34163 19.8652 1.32187 20.0704C1.30803 25.9524 1.30803 31.837 1.32187 37.7243C1.33406 37.8289 1.3701 37.9295 1.42727 38.0182C1.48443 38.107 1.5612 38.1816 1.65176 38.2365C4.89524 39.7123 8.14527 41.1728 11.4018 42.6181C11.5345 42.6777 11.7744 42.6823 11.8724 42.6021C12.7502 41.8859 13.6061 41.1457 14.4988 40.386H14.4931ZM15.5058 12.5893L21.2649 1.74052H17.8357C17.8357 2.26646 17.8357 2.76375 17.8357 3.26219C17.8265 4.01729 17.394 4.46875 16.6362 4.48479C15.8783 4.50083 15.1367 4.50083 14.3881 4.48479C13.6118 4.4699 13.1793 4.015 13.1724 3.23354C13.1724 2.73854 13.1724 2.2424 13.1724 1.73365H9.73856C11.6602 5.35104 13.5553 8.91917 15.5058 12.5893ZM16.522 1.73937H14.4942V3.15677H16.5197L16.522 1.73937Z" fill="white"/>
</svg>
