<svg width="37" height="46" viewBox="0 0 37 46" fill="none" xmlns="http://www.w3.org/2000/svg">
<path d="M30.7355 45.0025C22.411 45.0025 14.0777 45.0025 5.75319 45.0025C5.26402 44.7424 5.08058 44.3348 5.15047 43.7886C5.35137 42.1151 5.54354 40.4329 5.72698 38.7595C5.8056 38.0485 5.87548 37.3374 5.95409 36.6004C5.75319 36.5657 5.59595 36.5311 5.43872 36.505C3.92755 36.2709 2.42512 36.0542 0.913945 35.8114C0.276283 35.7073 -0.0119749 35.2911 0.0928463 34.6668C0.765448 30.6609 1.43805 26.6463 2.11065 22.6403C2.80073 18.5303 3.49953 14.4204 4.18087 10.3104C4.47786 8.52416 5.22035 6.98075 6.60923 5.79284C6.96736 5.48936 7.29056 5.19455 7.51767 4.76968C7.67491 4.47487 7.94569 4.1974 8.23395 4.03266C10.2168 2.87076 12.2259 1.74355 14.2175 0.607666C16.8992 0.607666 19.5721 0.607666 22.2538 0.607666C22.5158 0.729058 22.7866 0.824438 23.0312 0.963172C24.6909 1.92564 26.3505 2.87076 27.9753 3.87658C28.412 4.14538 28.7265 4.61361 29.0846 4.99512C29.2506 5.16854 29.3729 5.39398 29.5563 5.54139C30.8928 6.59923 31.7925 7.93455 32.1157 9.59935C32.4476 11.2815 32.7097 12.981 32.9892 14.6718C33.5919 18.2442 34.1859 21.8079 34.7886 25.3803C35.304 28.4845 35.8281 31.58 36.3347 34.6842C36.4396 35.3345 36.1688 35.7073 35.5136 35.8114C34.5965 35.9674 33.6793 36.0975 32.7621 36.2362C32.0196 36.349 31.2771 36.4617 30.5084 36.5831C30.7705 38.9676 31.0151 41.3087 31.3033 43.6412C31.3819 44.2394 31.2684 44.6903 30.7355 45.0025ZM29.4864 43.251C29.1458 40.1728 28.8051 37.138 28.4644 34.0772C28.2723 34.0772 28.115 34.0772 27.9491 34.0772C26.5252 34.0772 25.0927 34.0772 23.6689 34.0772C23.0137 34.0772 22.6294 33.765 22.6206 33.2361C22.6119 32.6899 23.005 32.3517 23.6776 32.3517C25.049 32.3517 26.4117 32.3517 27.7831 32.3517C27.9403 32.3517 28.0888 32.3517 28.2723 32.3517C28.0015 29.9239 27.7394 27.5567 27.4686 25.1896C27.3027 23.7242 27.1367 22.2675 26.9969 20.8021C26.9445 20.2385 27.2939 19.8396 27.7918 19.7963C28.2723 19.7529 28.6653 20.1171 28.7352 20.6807C29.0584 23.5594 29.3816 26.4468 29.7048 29.3342C29.7834 30.0019 29.862 30.6695 29.9494 31.3719C31.3033 31.1638 32.6049 30.973 33.9326 30.7736C33.6094 28.8573 33.3037 26.9931 32.9892 25.1289C32.3952 21.5565 31.8012 17.9841 31.1898 14.4203C30.919 12.8162 30.6482 11.2035 30.3163 9.60802C30.1416 8.78429 29.6873 8.08195 29.2418 7.63974C28.3159 8.42878 27.4249 9.19182 26.4816 9.98954C26.8135 10.241 27.0231 10.3711 27.2066 10.5358C27.4686 10.7612 27.7569 10.978 27.9578 11.2555C28.875 12.5041 28.5867 14.0302 27.259 15.01C24.4026 17.1257 21.5462 19.25 18.6811 21.3484C17.7901 21.9987 17.3709 22.8398 17.3709 23.941C17.3796 30.2273 17.3796 36.5137 17.3796 42.8001C17.3796 42.9562 17.3796 43.1036 17.3796 43.277C21.4239 43.251 25.4246 43.251 29.4864 43.251ZM6.54808 31.3632C6.72278 29.7678 6.89748 28.2244 7.07219 26.6723C7.2993 24.6606 7.51767 22.6577 7.76226 20.646C7.83214 20.0738 8.23395 19.7356 8.71438 19.7876C9.22102 19.8483 9.56169 20.2732 9.50054 20.8541C9.29963 22.7617 9.07252 24.6693 8.86288 26.5769C8.65324 28.4845 8.43486 30.3921 8.21648 32.343C8.39992 32.343 8.55715 32.343 8.71438 32.343C10.112 32.343 11.5096 32.3344 12.9072 32.343C13.475 32.343 13.8681 32.6985 13.8768 33.1841C13.8943 33.687 13.4837 34.0599 12.8985 34.0685C12.0949 34.0772 11.3 34.0685 10.4963 34.0685C9.68398 34.0685 8.87161 34.0685 8.02431 34.0685C7.68364 37.138 7.34297 40.1728 7.0023 43.2336C9.87615 43.2336 12.7413 43.2336 15.6326 43.2336C15.6326 43.0342 15.6326 42.8695 15.6326 42.696C15.6326 36.4357 15.6326 30.184 15.6326 23.9236C15.6326 23.0045 15.7898 22.1461 16.2702 21.357C16.4362 21.0882 16.6284 20.8455 16.8205 20.5853C16.5585 20.3859 16.3314 20.2125 16.0955 20.0477C13.8069 18.3569 11.5096 16.6748 9.22975 14.984C7.61376 13.7874 7.59629 11.8191 9.19481 10.5878C9.42192 10.4144 9.64904 10.241 9.99844 9.9722C9.06379 9.16581 8.17281 8.38543 7.28183 7.61372C6.75772 8.14264 6.27729 8.92302 6.12006 9.77277C5.71825 11.9578 5.34264 14.1516 4.97576 16.3366C4.3381 20.0738 3.71791 23.8196 3.08898 27.5567C2.91428 28.6146 2.73958 29.6811 2.55614 30.7649C3.89261 30.973 5.18541 31.1638 6.54808 31.3632ZM18.192 17.6286C18.2269 17.6286 18.2618 17.6199 18.2968 17.6199C19.5983 13.7007 20.9086 9.79011 22.2276 5.8362C19.5546 5.8362 16.9341 5.8362 14.2612 5.8362C15.5714 9.79011 16.8817 13.7093 18.192 17.6286ZM24.4812 3.83323C24.3153 4.6136 24.2104 5.37664 23.9746 6.09632C22.708 9.96353 21.4065 13.8134 20.1224 17.6719C20.0787 17.8107 20.0351 17.9494 19.9564 18.2008C22.1664 16.5707 24.2716 15.0273 26.368 13.4666C26.8484 13.1024 26.8397 12.4694 26.3593 12.0879C25.9225 11.7324 25.4508 11.4116 24.9966 11.0734C24.1755 10.4578 24.1406 9.99821 24.8656 9.27853C25.6779 8.47214 26.499 7.66575 27.3027 6.85936C27.7481 6.40847 27.7394 5.78417 27.2415 5.48069C26.3243 4.89107 25.3809 4.35348 24.4812 3.83323ZM12.0949 3.7812C11.1951 4.31012 10.3391 4.80436 9.49181 5.2986C8.73185 5.74082 8.65324 6.33044 9.26469 6.94607C10.0771 7.75246 10.8894 8.55885 11.7018 9.36524C12.3045 9.96353 12.2608 10.4751 11.5795 10.9867C11.1515 11.3075 10.7147 11.6283 10.2867 11.9492C9.58789 12.4694 9.58789 13.085 10.2867 13.6053C12.2346 15.0447 14.1913 16.484 16.1392 17.9147C16.2353 17.9841 16.3401 18.0448 16.5061 18.1575C16.4362 17.9494 16.4013 17.828 16.3576 17.7066C15.4579 15.0013 14.5145 12.3047 13.6584 9.57334C13.0732 7.68309 12.1298 5.88822 12.0949 3.7812ZM22.6119 4.05867C22.6119 3.86791 22.6119 3.70316 22.6119 3.54709C22.6119 2.64532 22.3062 2.34184 21.4152 2.34184C19.2576 2.34184 17.1088 2.34184 14.9512 2.34184C14.2175 2.34184 13.8856 2.68 13.8768 3.39968C13.8768 3.60778 13.8768 3.82456 13.8768 4.05867C16.7943 4.05867 19.6682 4.05867 22.6119 4.05867ZM6.35591 33.1061C4.9845 32.898 3.64803 32.6985 2.25915 32.4904C2.16306 33.0887 2.06698 33.6437 1.97963 34.2159C3.41218 34.4327 4.76612 34.6321 6.16373 34.8402C6.21615 34.268 6.27729 33.7304 6.35591 33.1061ZM34.2034 32.4904C32.8145 32.6985 31.478 32.9066 30.1154 33.1061C30.1852 33.7217 30.2551 34.2766 30.325 34.8489C31.7313 34.6321 33.1028 34.424 34.5004 34.2159C34.3956 33.6263 34.3082 33.0887 34.2034 32.4904Z" fill="#FFEEEE"/>
<path d="M20.8562 28.0162C20.8475 28.4757 20.4544 28.8659 19.9914 28.8746C19.5023 28.8746 19.1092 28.467 19.1267 27.9815C19.1441 27.5133 19.5372 27.1404 20.0089 27.1491C20.4631 27.1577 20.8649 27.5566 20.8562 28.0162Z" fill="#FFEEEE"/>
<path d="M20.0001 34.0685C19.5372 34.0772 19.1354 33.6956 19.1179 33.2361C19.1004 32.7678 19.476 32.369 19.9477 32.3516C20.4281 32.3343 20.8562 32.7331 20.8562 33.2101C20.8562 33.661 20.4631 34.0598 20.0001 34.0685Z" fill="#FFEEEE"/>
<path d="M20.8562 38.4212C20.8475 38.8807 20.4544 39.2709 19.9914 39.2796C19.5023 39.2796 19.1092 38.8721 19.1267 38.3865C19.1441 37.9183 19.5372 37.5454 20.0089 37.5541C20.4631 37.5628 20.8649 37.9616 20.8562 38.4212Z" fill="#FFEEEE"/>
</svg>
