<?xml version="1.0" encoding="UTF-8"?><!DOCTYPE svg PUBLIC "-//W3C//DTD SVG 1.1//EN" "http://www.w3.org/Graphics/SVG/1.1/DTD/svg11.dtd"><svg xmlns="http://www.w3.org/2000/svg" xmlns:xlink="http://www.w3.org/1999/xlink"><symbol id="ico-color-clock" viewBox="0 0 25 25">
    <path d="M12.5 1.563C6.46 1.563 1.562 6.46 1.562 12.5c0 6.04 4.898 10.938 10.938 10.938 6.04 0 10.938-4.898 10.938-10.938 0-6.04-4.898-10.938-10.938-10.938zm0 20.019A9.084 9.084 0 013.418 12.5 9.084 9.084 0 0112.5 3.418a9.084 9.084 0 019.082 9.082 9.084 9.084 0 01-9.082 9.082z" fill="#23356B"/>
    <path d="M16.765 15.59l-3.481-2.516V7.03a.196.196 0 00-.196-.195h-1.174a.196.196 0 00-.195.195v6.724c0 .063.029.122.08.159l4.038 2.944c.088.063.21.044.274-.042l.698-.952a.195.195 0 00-.044-.273z" fill="#23356B"/>
</symbol><symbol id="ico-color-email" viewBox="0 0 23 19">
    <path d="M21.656.906H1.344a.78.78 0 00-.782.781v15.626c0 .432.35.78.782.78h20.312a.78.78 0 00.782-.78V1.688a.78.78 0 00-.782-.782zm-.976 2.705v12.725H2.32V3.61l-.674-.525.96-1.232 1.045.813h15.7l1.046-.813.959 1.232-.676.525zm-1.328-.947L11.5 8.768 3.648 2.664l-1.044-.813-.96 1.233.674.525 8.34 6.484a1.367 1.367 0 001.677 0l8.345-6.482.674-.525-.96-1.232-1.042.81z" fill="#23356B"/>
</symbol><symbol id="ico-color-location" viewBox="0 0 19 25">
    <path d="M9.5 0A9.424 9.424 0 00.076 9.424c0 1.74.34 3.538 1.319 4.834L9.5 25l8.105-10.742c.889-1.177 1.319-3.258 1.319-4.834A9.424 9.424 0 009.5 0zm0 5.458a3.966 3.966 0 110 7.932 3.966 3.966 0 010-7.932z" fill="#23356B"/>
</symbol><symbol id="ico-color-more" viewBox="0 0 72 21">
    <path d="M1 4l35 15.5L71.5 4" stroke="tan"/>
    <path d="M13.5 1l22.58 10L58.985 1" stroke="tan"/>
</symbol><symbol id="ico-color-phone" viewBox="0 0 21 21">
    <path d="M13.883 14.781l1.75-1.75a1.711 1.711 0 011.828-.375l2.132.852a1.704 1.704 0 011.063 1.562v3.907a1.696 1.696 0 01-1.781 1.68C3.929 19.726.914 7.07.343 2.226A1.695 1.695 0 012.04.344h3.773a1.687 1.687 0 011.563 1.062l.851 2.133a1.688 1.688 0 01-.367 1.828l-1.75 1.75s1.008 6.82 7.774 7.664z" fill="#23356B"/>
</symbol><symbol id="ico-color-thanks" viewBox="0 0 111 84">
    <path d="M35.25 66.25L9 40 .25 48.75l35 35 75-75L101.5 0 35.25 66.25z" fill="tan"/>
</symbol></svg>