<?xml version="1.0" encoding="UTF-8"?><!DOCTYPE svg PUBLIC "-//W3C//DTD SVG 1.1//EN" "http://www.w3.org/Graphics/SVG/1.1/DTD/svg11.dtd"><svg xmlns="http://www.w3.org/2000/svg" xmlns:xlink="http://www.w3.org/1999/xlink"><symbol id="ico-mono-check" viewBox="0 0 12 10">
    <path fill-rule="evenodd" clip-rule="evenodd" d="M11.513.175a.833.833 0 01.146 1.17L5.18 9.678a.833.833 0 01-1.23.094L.427 6.439a.833.833 0 011.146-1.21L4.428 7.93 10.343.322a.833.833 0 011.17-.147z"/>
</symbol><symbol id="ico-mono-telegram" viewBox="0 0 24 21">
    <path d="M9.128 13.674l-.385 5.572c.55 0 .79-.244 1.075-.536l2.581-2.54 5.349 4.033c.981.562 1.672.266 1.937-.93l3.51-16.934.001-.001c.312-1.493-.524-2.077-1.48-1.71L1.08 8.76c-1.408.563-1.387 1.37-.24 1.737l5.276 1.69 12.255-7.894c.577-.394 1.101-.176.67.217l-9.913 9.163z"/>
</symbol><symbol id="ico-mono-whatsapp" viewBox="0 0 26 27">
    <path fill-rule="evenodd" clip-rule="evenodd" d="M22.235 4.727A12.632 12.632 0 0013.24.998C6.233.998.529 6.701.527 13.711c-.001 2.241.584 4.429 1.697 6.357L.42 26.656l6.74-1.768a12.7 12.7 0 006.076 1.547h.005c7.007 0 12.711-5.703 12.714-12.714a12.636 12.636 0 00-3.72-8.994zM13.24 24.288h-.005c-1.896 0-3.755-.51-5.378-1.473l-.386-.229-4 1.05 1.068-3.9-.251-.4a10.542 10.542 0 01-1.616-5.624C2.675 7.886 7.416 3.145 13.245 3.145c2.823.001 5.476 1.102 7.471 3.1a10.505 10.505 0 013.092 7.476c-.002 5.827-4.742 10.567-10.567 10.567zm5.796-7.914c-.317-.16-1.88-.928-2.17-1.034-.291-.106-.503-.159-.715.16-.212.317-.82 1.033-1.006 1.245-.186.212-.37.238-.688.08-.318-.16-1.342-.495-2.555-1.578-.944-.842-1.582-1.882-1.767-2.2-.186-.318-.002-.474.139-.649.344-.427.688-.874.794-1.086.106-.212.053-.398-.027-.557-.079-.159-.714-1.722-.979-2.359-.258-.619-.52-.535-.715-.545-.185-.01-.397-.011-.609-.011-.211 0-.555.08-.847.398-.29.318-1.111 1.086-1.111 2.65 0 1.563 1.138 3.074 1.297 3.286.158.212 2.24 3.42 5.427 4.797.758.327 1.35.523 1.81.67.762.24 1.454.207 2.002.125.61-.091 1.879-.769 2.144-1.51.265-.743.265-1.379.185-1.511-.08-.133-.291-.212-.609-.371z"/>
</symbol></svg>