<?xml version="1.0" encoding="UTF-8"?><!DOCTYPE svg PUBLIC "-//W3C//DTD SVG 1.1//EN" "http://www.w3.org/Graphics/SVG/1.1/DTD/svg11.dtd"><svg xmlns="http://www.w3.org/2000/svg" xmlns:xlink="http://www.w3.org/1999/xlink"><symbol id="ico-mono-booking_1" viewBox="0 0 17 23">
    <path fill-rule="evenodd" clip-rule="evenodd" d="M10.338 16.126c-.232-.053-.452-.146-.65-.218-.221-.081-.438-.138-.637-.231.042-.152.2-.296.303-.424.14-.175.939-1.12.984-1.284.14.092.44.319.597.36-.004.19-.214.7-.289.885l-.308.912zm5.421 2.83c0 .433.506 2.225.506 2.786 0 .468-.35.584-.827.584H13.83v-3.19c0-.48-.69-.356-.69-.045v3.235H6.708c-.455 0-.455.674 0 .674h9.005c.759 0 1.287-.571 1.287-1.303 0-.272-.234-1.3-.302-1.636-.119-.577-.17-1.42-.571-1.42-.197 0-.367.14-.367.315zm-9.694-4.582c.174-.115.45-.326.597-.36l.9 1.232c.11.15.214.28.295.43l-1.149.45c-.204-.377-.524-1.492-.643-1.753zm1.01-1.304c.595.136.73.225 1.471.225.433 0 1.096-.092 1.378-.225 0 .167.024.244-.038.367l-1.005 1.264c-.113.149-.336.361-.381.526-.19-.05-.672-.816-.794-.976-.41-.536-.63-.715-.63-1.18zM4.642 8.848V6.601c0-.166.421-.25.736-.853.623-1.19-.495-1.324 1.665-1.047.223.03.425.005.65.039l3.519-.161c.206 0 .201.352.226.542.144 1.088.923 1.25.923 1.48v2.426c0 1.768-1.746 3.55-3.63 3.55-1.034 0-1.65-.139-2.473-.683l-.527-.428c-.085-.087-.129-.155-.206-.248a6.086 6.086 0 01-.202-.252c-.401-.53-.681-1.375-.681-2.119zm8.454-.809V6.735c.315.026.57.334.582.635.019.462-.454.602-.582.668zm-9.19-1.303v1.303c-.284-.147-.544-.228-.575-.64-.023-.298.27-.638.575-.663zm.276-4.672c0 .242.17.36.368.36.265 0 .58-.414.745-.575.182-.176.564-.435.802-.564 1.615-.876 3.989-.732 5.426.43.265.213.425.372.666.606 1.015.989 1.228 2.296 1.228 3.742l-.546-.095c-.473-.068-.702-.703-.747-1.156-.148-1.461-1.713-.768-2.703-.77-.202 0-.484.027-.593.025-.123-.003-.39-.027-.603-.026-1.04.002-1.786-.18-2.435-.18-.284 0-.58.197-.71.384-.267.385-.148 1.634-.991 1.726l-.504.092c0-.642.023-1.177.14-1.705.059-.263.345-.779.293-1.013-.052-.239-.237-.248-.433-.248-.374 0-.682 1.548-.691 1.886-.011.423.042.873-.017 1.286-.015.1-.016.183-.029.286-.037.292-.535.818.037 1.585.255.342.56.513 1.021.618.112 1.315.397 2.078 1.11 2.96.28.349.724.704 1.117.929.314.179.209.243.209.604 0 .213-.923.684-1.093.73l-2.164.624c-.704.22-1.328.425-1.733 1.09-.25.409-.34.9-.436 1.371l-.314 1.536-.314 1.535c-.1.488-.287 1.06-.287 1.561C0 22.434.54 23 1.287 23H5.1c.486 0 .468-.674 0-.674H3.86v-3.19c0-.417-.69-.414-.69-.045v3.235H1.562c-1.239 0-.788-.974-.609-1.853.247-1.204.454-2.456.738-3.637.219-.912.46-1.24 1.403-1.503.372-.104 1.998-.638 2.328-.645.045.19.127.418.203.61.194.49.364 1.547 1.037 1.547.362 0 .73-.233 1.056-.36.115-.045.26-.084.368-.135v2.563c-.007.636.378.722.615.464.157-.17.075-1.022.075-1.274V16.35c.433.036 1.1.495 1.516.495.71 0 .875-.952 1.074-1.51.057-.16.201-.514.212-.647.268.006 2.537.678 2.835.823 1.27.617.66 2.277 1.392 2.277.768 0-.04-1.947-.228-2.203-.35-.477-.9-.774-1.48-.933-.645-.176-1.268-.369-1.885-.538-.668-.184-.707-.227-1.222-.558-.402-.258-.33-.277-.33-.71 0-.135.09-.133.208-.2.635-.363.683-.523 1.112-.935.705-.677 1.115-1.806 1.115-2.954.56-.045 1.286-.663 1.286-1.258 0-.53-.055-.426-.199-.838-.073-.21-.031-.536-.03-.78.001-1.437-.338-2.828-1.297-3.898A5.915 5.915 0 0011.27.7c-1.958-1.066-4.667-.938-6.366.543-.152.133-.724.624-.724.82z"/>
</symbol><symbol id="ico-mono-booking_2" viewBox="0 0 22 22">
    <path d="M.807 9.44c.01-.033.032-.06.037-.093.194-.782.796-1.295 1.586-1.323.56-.016 1.113-.005 1.672-.005.236 0 .392.142.398.344.005.208-.156.355-.404.36-.51.006-1.02 0-1.532 0-.688.006-1.07.394-1.07 1.094V20.06c0 .689.382 1.082 1.054 1.087.871.006 1.747.006 2.618 0 .661-.005 1.043-.398 1.043-1.076v-10.2c0-.422.091-.536.505-.514.715.038 1.231-.252 1.618-.864.436-.683.941-1.327 1.242-2.092.317-.798.5-1.623.505-2.486.006-.492 0-.984 0-1.47.006-1.126.973-1.781 2.005-1.36A4.506 4.506 0 0114.87 5.26c0 .295.005.584 0 .88-.006.223-.145.376-.333.382-.2.005-.34-.153-.35-.388-.032-.585 0-1.18-.123-1.743-.28-1.273-1.065-2.158-2.253-2.661-.559-.235-1.021.082-1.027.7-.005.573.006 1.147-.016 1.715-.053 1.437-.505 2.743-1.306 3.929-.226.333-.451.66-.677.989-.43.622-1.01.956-1.763.977a.406.406 0 00-.081.012c-.005 0-.01.005-.038.032v9.999c0 .874-.478 1.519-1.263 1.721l-.269.066H2.344c-.043-.011-.086-.033-.134-.039-.586-.103-1-.431-1.253-.972-.064-.131-.097-.279-.145-.42-.005-3.662-.005-7.328-.005-11z"/>
    <path d="M21.448 10.22c-.091.143-.188.269-.381.247-.2-.022-.312-.159-.307-.4.006-.425-.145-.77-.484-1.02-.22-.165-.473-.208-.741-.208h-4.817c-.064 0-.134 0-.199-.006-.199-.016-.322-.153-.322-.344 0-.186.129-.328.322-.35.06-.005.119 0 .183 0h4.752c1.07 0 1.683.476 1.973 1.525.005.01.016.021.027.027-.006.175-.006.35-.006.53z"/>
    <path d="M20.2 14.772c.565.541.79 1.18.613 1.934-.177.754-.66 1.224-1.365 1.437.091.235.21.448.258.672.226 1.071-.554 2.022-1.645 2.027-1.967.006-3.935.006-5.902.006-1.107 0-2.215.005-3.327.005h-.119c-.3 0-.446-.109-.446-.344 0-.23.15-.355.44-.355h1.957l7.295-.016c.317 0 .618-.055.844-.312.263-.3.333-.655.188-1.027-.161-.399-.473-.601-.898-.607-.602-.01-1.21 0-1.811-.005-.226 0-.366-.142-.366-.344 0-.202.145-.339.371-.35h2.64c.113 0 .225-.01.338-.038.554-.126.946-.656.925-1.251a1.215 1.215 0 00-1.016-1.175 2.663 2.663 0 00-.36-.027c-.479-.006-.952 0-1.43-.006-.215 0-.35-.136-.355-.333-.005-.202.134-.344.355-.36.054-.006.107 0 .161 0 .586 0 1.167.005 1.752 0 .656-.012 1.167-.542 1.188-1.225.022-.617-.456-1.169-1.08-1.245a2.382 2.382 0 00-.28-.017h-1.671c-.28 0-.43-.126-.43-.35 0-.223.156-.355.424-.355h1.796c.091 0 .188.011.28.028.8.125 1.424.699 1.601 1.47a1.958 1.958 0 01-.8 2.07c-.05.033-.081.06-.124.093z"/>
</symbol><symbol id="ico-mono-booking_3" viewBox="0 0 21 21">
    <path d="M1.197 20.004C1.07 19.95.94 19.91.82 19.847c-.5-.258-.777-.664-.81-1.226-.005-.084-.004-.169-.004-.253C.006 13.8.004 9.23 0 4.663c0-.545.176-.975.568-1.356.95-.919 1.887-1.852 2.821-2.786A1.661 1.661 0 014.64.005c3.269.008 6.54.017 9.81-.005.865-.005 1.61.626 1.593 1.58-.022 1.21-.005 2.42-.005 3.63.003.059 0 .117-.005.176a.29.29 0 01-.104.194.296.296 0 01-.213.066c-.166-.017-.263-.111-.272-.28-.004-.065-.003-.13-.003-.195V1.599c0-.67-.34-1.005-1.023-1.004h-9.75c-.046 0-.092.003-.138 0-.143-.012-.194.045-.193.192.007.774.003 1.549.003 2.323 0 .793-.399 1.188-1.2 1.188H.614c-.005.09-.012.165-.012.241v13.958c0 .555.364.919.925.919h12.988c.549 0 .912-.36.926-.904.003-.117-.003-.234.003-.351.01-.172.124-.29.279-.298a.308.308 0 01.216.082.302.302 0 01.097.207c.093 1.015-.392 1.648-1.187 1.826-.012.002-.02.015-.03.023l-13.621.003zm2.53-18.88l-2.61 2.584h.769c.453 0 .907.003 1.36 0 .29-.003.474-.141.479-.383.012-.747.005-1.493.005-2.202h-.002z"/>
    <path d="M13.674 14.567c-.674-.187-.953-.511-1.027-1.17-.027-.232-.147-.414-.37-.487a1.202 1.202 0 01-.743-.755 1.175 1.175 0 01.157-1.043c.137-.202.128-.424-.008-.626a1.175 1.175 0 01.573-1.774c.253-.086.377-.284.396-.553.053-.745.709-1.24 1.446-1.077.313.069.542-.01.753-.245a1.172 1.172 0 011.785.01c.198.224.417.303.716.238.748-.162 1.371.28 1.46 1.033.037.313.178.504.474.63a1.16 1.16 0 01.664.71 1.135 1.135 0 01-.12.959c-.163.272-.161.513 0 .782a1.14 1.14 0 01-.545 1.666c-.302.13-.443.331-.474.65-.053.513-.349.848-.84.999-.136.043-.167.097-.166.226.005.8.005 1.6 0 2.4 0 .384-.19.645-.533.684a.858.858 0 01-.465-.104c-.316-.168-.621-.365-.925-.559-.101-.065-.177-.072-.282-.005-.297.192-.605.366-.905.555-.23.144-.464.183-.706.044-.232-.134-.32-.345-.317-.607.005-.788 0-1.575 0-2.363l.002-.218zm5.75-4.73a.627.627 0 00-.411-.567c-.488-.197-.742-.556-.791-1.07-.04-.407-.34-.631-.738-.54-.519.119-.942-.017-1.29-.417-.267-.305-.659-.299-.925.008-.336.388-.75.522-1.254.412-.432-.096-.738.133-.774.568-.04.488-.291.823-.738 1.02-.437.192-.546.522-.306.931.24.41.243.826.003 1.24-.24.412-.136.741.314.941.439.195.686.529.726 1.008.035.44.338.673.77.578.504-.11.918.019 1.256.406.275.313.66.317.938 0 .339-.386.75-.522 1.255-.408.429.095.719-.12.764-.555.053-.496.298-.848.768-1.043.409-.171.523-.527.294-.908-.256-.425-.257-.845-.003-1.272.055-.108.103-.219.143-.333zm-5.14 4.666v2.76c.09-.051.152-.083.211-.12.292-.176.583-.352.873-.532.24-.15.48-.157.723-.007.302.184.605.368.908.55.053.032.11.06.187.102v-2.752a.574.574 0 00-.487.19c-.053.057-.105.12-.16.173-.489.446-1.235.408-1.694-.093-.151-.166-.313-.295-.56-.27z"/>
    <path d="M9.816 2.034h2.94c.516 0 .763.242.765.748 0 .28.003.56 0 .84-.008.4-.278.675-.686.678-1.367.005-2.735.003-4.103 0-.217 0-.344-.115-.348-.292-.005-.187.121-.298.356-.299 1.3-.002 2.602-.002 3.906 0 .28 0 .28 0 .28-.271 0-.215-.005-.43 0-.644.005-.124-.032-.172-.165-.171-1.96.003-3.92.003-5.88 0-.127 0-.174.036-.17.166.008.253.007.507 0 .76-.003.119.04.166.158.161.132-.004.264-.004.395 0 .2.01.324.125.322.294-.001.17-.128.288-.326.296a5.76 5.76 0 01-.493 0c-.369-.02-.633-.268-.65-.631a10.8 10.8 0 010-.996c.017-.394.287-.636.697-.637 1.002-.004 2.002-.002 3.002-.002z"/>
    <path d="M6.322 7.095H9.93c.065-.003.13 0 .196.005.163.022.268.109.274.28.006.178-.096.274-.268.304a.925.925 0 01-.158.008H2.659c-.078 0-.177.008-.229-.033-.083-.068-.19-.177-.185-.261.006-.097.111-.203.198-.273.05-.041.151-.027.23-.027 1.216-.003 2.432-.004 3.649-.003z"/>
    <path d="M6.32 9.742H2.693c-.065 0-.131 0-.196-.005a.276.276 0 01-.178-.078.27.27 0 01-.081-.175.265.265 0 01.191-.304.653.653 0 01.211-.026h7.356a.684.684 0 01.158.007c.158.037.256.133.247.303-.009.17-.105.26-.273.275-.066.006-.132.003-.197.003H6.32z"/>
    <path d="M6.32 11.802H2.672c-.06.004-.119.002-.178-.004-.164-.028-.263-.133-.258-.294a.27.27 0 01.162-.26.28.28 0 01.106-.025c.059-.004.118-.005.177-.003h7.276c.06-.002.118 0 .177.004.169.02.264.116.264.283 0 .166-.094.264-.256.295a.963.963 0 01-.177.004H6.32z"/>
    <path d="M6.322 13.864H2.714c-.06 0-.12.003-.178-.003-.18-.018-.306-.143-.305-.299.002-.156.126-.275.31-.291.053-.004.105-.003.158-.003h7.237c.065-.002.131 0 .196.006.167.02.264.114.269.283.005.169-.094.265-.254.297a.982.982 0 01-.196.009H6.322z"/>
    <path d="M4.424 16.875c-.604 0-1.209.004-1.813-.004-.097 0-.22-.03-.283-.094a.33.33 0 01-.07-.276c.024-.082.13-.143.21-.203.026-.02.077-.01.116-.01H6.31c.196.01.324.128.32.296-.004.168-.137.287-.332.29-.388.003-.775 0-1.163 0l-.71.001z"/>
    <path d="M15.722 13.258c-1.367-.008-2.483-1.121-2.473-2.466.01-1.345 1.144-2.456 2.501-2.442a2.494 2.494 0 011.73.74 2.44 2.44 0 01.704 1.728 2.441 2.441 0 01-.725 1.72 2.495 2.495 0 01-1.737.72zm-1.869-2.451c0 .37.11.73.316 1.038.207.307.502.547.847.689a1.905 1.905 0 002.057-.406 1.845 1.845 0 00.404-2.036 1.87 1.87 0 00-.698-.835 1.9 1.9 0 00-1.05-.31 1.895 1.895 0 00-1.329.546 1.857 1.857 0 00-.547 1.316v-.002z"/>
</symbol><symbol id="ico-mono-booking_4" viewBox="0 0 11 26">
    <path d="M.586 26c-.063-.153-.179-.307-.183-.461-.118-5.1-.23-10.2-.335-15.299C.04 8.862-.035 7.48.02 6.105.093 4.26.266 2.413.399.567.405.49.431.42.44.343.47.097.603 0 .838.002c.777.006 1.555 0 2.333 0H10c.473 0 .531.018.604.52.12.816.226 1.638.285 2.46.234 3.23.031 6.461-.017 9.692-.039 2.647-.114 5.294-.17 7.94-.036 1.658-.064 3.316-.11 4.973-.003.14-.118.275-.181.412H6.277c-.062-.154-.17-.308-.18-.468-.035-.557-.038-1.116-.053-1.674-.102-3.931-.205-7.863-.31-11.793a75.13 75.13 0 00-.092-2.255c-.017-.297-.074-.59-.112-.885h-.064c-.039.304-.098.606-.11.91a346.978 346.978 0 00-.144 4.107c-.106 3.864-.202 7.728-.312 11.591-.004.154-.117.308-.18.468H.586zm.08-21.905C.643 5.159.592 6.207.605 7.255c.02 1.839.078 3.685.119 5.53.086 4.12.17 8.238.254 12.357 0 .077.01.148.016.23h3.309c.007-.084.017-.153.019-.216l.205-7.61c.066-2.462.117-4.923.207-7.384.032-.86.14-1.718.433-2.539a.91.91 0 00.036-.297V1.787c-.478 0-.922-.004-1.365.007-.05 0-.115.087-.147.149-.11.217-.36.27-.497.087a1.138 1.138 0 01-.107-.223h-.783C2.195 2.905 1.857 3.808.666 4.095zM10.02 25.38v-.455l.114-5.709c.09-4.17.19-8.338.267-12.507.016-.877-.053-1.755-.082-2.62C9.14 3.796 8.81 2.885 8.699 1.8H7.9l.04.061c-.109.092-.206.23-.331.265-.173.051-.277-.077-.322-.26-.01-.036-.084-.072-.13-.077-.152-.01-.303 0-.48 0v.303c-.004.939.007 1.879-.017 2.817-.015.595-.215 1.107-.77 1.393-.037.02-.09.068-.089.102.005.413-.06.85.049 1.23.238.826.378 1.678.415 2.54.074 1.697.107 3.397.153 5.097.088 3.282.174 6.563.258 9.845 0 .088.015.176.023.265h3.32zM7.884 1.16h2.232C10.079.97 10.042.8 10.012.63H7.884v.529zm-6.97 0h2.18V.633h-2.1l-.074.523-.006.004zm8.405.642c-.023.769.435 1.576.958 1.581l-.053-.782c-.017-.26-.032-.532-.048-.8h-.857zm-8.585 1.6c.582-.143 1-.866.946-1.609H.859l-.125 1.61zM5.81 1.787V5.62c.235-.316.272-.63.273-.95V1.986c0-.065-.012-.13-.019-.198H5.81zM3.724 1.15h1.468V.624H3.724v.525zM7.272.624h-.865v.526h.865V.624zm-1.364.548V.615c-.228.032-.083.245-.112.371-.025.109-.015.23.112.186z"/>
</symbol><symbol id="ico-mono-booking_5" viewBox="0 0 17 21">
    <path d="M1.212 20.82c-.146-.097-.322-.175-.434-.306-.102-.122-.136-.297-.185-.453-.02-.059-.005-.127-.005-.195 0-5.581.005-11.157-.005-16.738 0-.745.263-1.349.858-1.802.36-.278.774-.414 1.227-.414h12.169c.955 0 1.715.623 1.905 1.558.024.132.03.273.03.405v6.2c0 .053 0 .101-.005.155-.025.166-.132.258-.288.258-.16 0-.263-.097-.287-.263-.01-.063-.005-.131-.005-.195V2.91c0-.667-.322-1.14-.911-1.344-.784-.273-1.647.297-1.7 1.125-.005.112-.01.219-.01.33v11.085c.083.005.136.01.195.01h2.138c.259 0 .288-.03.288-.293v-3.306c0-.059-.005-.117.005-.176.029-.16.126-.258.292-.258.166 0 .263.098.287.263.01.059.005.117.005.175 0 1.101-.02 2.202.005 3.307.015.619-.41.901-.882.886-.701-.024-1.398-.004-2.1-.004h-.233v.243c0 1.607-.01 3.214.005 4.821.005.502-.156.872-.653 1.043-3.902.004-7.804.004-11.706.004zM13.473 1.501h-.155c-3.513 0-7.025 0-10.538.005-.16 0-.326.02-.477.059-.73.2-1.13.77-1.13 1.587v16.675c0 .355.053.404.4.404h10.984c.37 0 .41-.039.41-.414 0-5.22-.005-10.446-.005-15.666 0-.351-.005-.702.01-1.047.02-.439.005-.887.272-1.271.069-.103.137-.2.23-.332z"/>
    <path d="M8.68 17.708H5.826c-.18-.015-.298-.132-.293-.297.005-.156.117-.273.283-.288.044-.005.092 0 .136 0h5.54c.238.005.38.117.374.297-.005.176-.141.283-.365.288H8.68z"/>
    <path d="M8.7 7.331h2.737c.078 0 .175-.01.224.034.083.073.175.18.185.283.015.131-.083.243-.234.263-.068.01-.14.014-.214.014H5.976c-.063 0-.131 0-.195-.01-.156-.02-.248-.107-.258-.263-.015-.165.078-.267.234-.306.063-.015.126-.01.195-.01.92-.005 1.836-.005 2.747-.005z"/>
    <path d="M8.719 13.842H11.515c.21.01.341.121.346.292.005.175-.136.302-.356.302-.725.005-1.451 0-2.177 0H5.967c-.074 0-.147 0-.21-.015-.15-.039-.234-.136-.224-.297.01-.156.097-.248.253-.273.069-.01.142-.01.215-.01h2.718z"/>
    <path d="M7.803 11.207H5.957c-.078 0-.175.01-.224-.029-.083-.073-.19-.18-.19-.272 0-.093.107-.2.195-.268.049-.04.15-.03.224-.03H9.767c.214.015.34.122.345.293.005.18-.126.302-.35.306-.41.005-.814 0-1.223 0h-.736z"/>
    <path d="M4.52 14.153a1.001 1.001 0 01-2.003-.024c.01-.55.478-1.008 1.014-.994.555.01.989.463.989 1.018zm-.994-.414a.397.397 0 00-.41.4c0 .223.19.413.41.408.21 0 .4-.185.404-.394a.415.415 0 00-.404-.414z"/>
    <path d="M4.52 10.924a1.007 1.007 0 01-1.014.989c-.545-.01-1.003-.477-.989-1.018.015-.55.478-1.003 1.019-.988.55.01.984.462.984 1.017zm-1.009-.418a.397.397 0 00-.394.413c.01.215.19.39.404.39.22 0 .414-.195.41-.409a.41.41 0 00-.42-.394z"/>
    <path d="M3.526 16.422a.997.997 0 01.994 1.003.994.994 0 01-1.004.994.998.998 0 11.01-1.997zm.404.988c-.005-.214-.204-.409-.419-.399a.418.418 0 00-.394.424c.01.214.195.394.404.394.214-.005.414-.204.41-.419z"/>
    <path d="M4.52 7.638a1.004 1.004 0 01-1.008.993 1.015 1.015 0 01-.994-1.013c.01-.55.458-.993 1.013-.993.546.01.989.458.989 1.013zm-1.004.394a.415.415 0 00.414-.404c0-.214-.2-.409-.414-.404a.415.415 0 00-.4.4c-.009.223.171.408.4.408z"/>
    <path d="M3.54 3.352a.992.992 0 01.975 1.037.99.99 0 01-1.023.955 1 1 0 01-.98-1.018 1.007 1.007 0 011.028-.974zm-.02 1.407c.215 0 .415-.2.41-.414a.43.43 0 00-.419-.404.408.408 0 00-.395.404.412.412 0 00.405.414z"/>
    <path d="M9.567 4.647H7.662c-.258 0-.39-.102-.39-.297 0-.19.132-.287.38-.287h3.844c.287 0 .463.228.317.428-.064.088-.215.146-.327.151-.638.01-1.28.005-1.92.005z"/>
    <path d="M11.258 11.211c-.093-.004-.205-.004-.312-.024-.151-.029-.239-.131-.239-.287.005-.151.088-.268.244-.278.219-.014.438-.014.657 0 .156.01.244.127.249.278.005.16-.093.268-.254.292-.107.02-.219.015-.345.02z"/>
    <path d="M6.108 4.643c-.103 0-.21.01-.312 0-.166-.015-.278-.142-.268-.298.01-.165.102-.267.268-.277.204-.01.414-.01.619 0 .17.01.258.131.258.287 0 .156-.093.268-.258.287-.103.01-.205 0-.307 0z"/>
</symbol><symbol id="ico-mono-check" viewBox="0 0 12 10">
    <path fill-rule="evenodd" clip-rule="evenodd" d="M11.513.175a.833.833 0 01.146 1.17L5.18 9.678a.833.833 0 01-1.23.094L.427 6.439a.833.833 0 011.146-1.21L4.428 7.93 10.343.322a.833.833 0 011.17-.147z"/>
</symbol><symbol id="ico-mono-telegram" viewBox="0 0 24 21">
    <path d="M9.128 13.674l-.385 5.572c.55 0 .79-.244 1.075-.536l2.581-2.54 5.349 4.033c.981.562 1.672.266 1.937-.93l3.51-16.934.001-.001c.312-1.493-.524-2.077-1.48-1.71L1.08 8.76c-1.408.563-1.387 1.37-.24 1.737l5.276 1.69 12.255-7.894c.577-.394 1.101-.176.67.217l-9.913 9.163z"/>
</symbol><symbol id="ico-mono-whatsapp" viewBox="0 0 26 27">
    <path fill-rule="evenodd" clip-rule="evenodd" d="M22.235 4.727A12.632 12.632 0 0013.24.998C6.233.998.529 6.701.527 13.711c-.001 2.241.584 4.429 1.697 6.357L.42 26.656l6.74-1.768a12.7 12.7 0 006.076 1.547h.005c7.007 0 12.711-5.703 12.714-12.714a12.636 12.636 0 00-3.72-8.994zM13.24 24.288h-.005c-1.896 0-3.755-.51-5.378-1.473l-.386-.229-4 1.05 1.068-3.9-.251-.4a10.542 10.542 0 01-1.616-5.624C2.675 7.886 7.416 3.145 13.245 3.145c2.823.001 5.476 1.102 7.471 3.1a10.505 10.505 0 013.092 7.476c-.002 5.827-4.742 10.567-10.567 10.567zm5.796-7.914c-.317-.16-1.88-.928-2.17-1.034-.291-.106-.503-.159-.715.16-.212.317-.82 1.033-1.006 1.245-.186.212-.37.238-.688.08-.318-.16-1.342-.495-2.555-1.578-.944-.842-1.582-1.882-1.767-2.2-.186-.318-.002-.474.139-.649.344-.427.688-.874.794-1.086.106-.212.053-.398-.027-.557-.079-.159-.714-1.722-.979-2.359-.258-.619-.52-.535-.715-.545-.185-.01-.397-.011-.609-.011-.211 0-.555.08-.847.398-.29.318-1.111 1.086-1.111 2.65 0 1.563 1.138 3.074 1.297 3.286.158.212 2.24 3.42 5.427 4.797.758.327 1.35.523 1.81.67.762.24 1.454.207 2.002.125.61-.091 1.879-.769 2.144-1.51.265-.743.265-1.379.185-1.511-.08-.133-.291-.212-.609-.371z"/>
</symbol></svg>