<svg width="38" height="37" viewBox="0 0 38 37" fill="none" xmlns="http://www.w3.org/2000/svg">
<path d="M31.03 0.0289065C31.1264 0.183073 31.2709 0.327605 31.3094 0.501043C31.3769 0.809376 31.1553 1.06953 30.8469 1.10807C30.7313 1.11771 30.6157 1.11771 30.4808 1.12734C30.4808 2.70755 30.4808 4.26849 30.4808 5.83906C30.8084 5.89687 31.1456 5.93542 31.4636 6.0125C33.6701 6.56172 35.2021 8.49844 35.2118 10.7724C35.2214 11.8997 35.2118 13.0367 35.2118 14.1641C35.2118 14.4724 35.0962 14.7518 34.7782 14.7711C34.5951 14.7904 34.3542 14.6555 34.2097 14.5206C34.123 14.4435 34.123 14.2315 34.123 14.0773C34.1133 13.0174 34.123 11.9576 34.1133 10.8977C34.1037 9.4138 33.487 8.24792 32.2055 7.46745C31.6274 7.11094 30.9915 6.94714 30.317 6.94714C23.235 6.94714 16.1529 6.9375 9.0709 6.94714C6.98965 6.94714 5.32272 8.59479 5.28418 10.6664C5.25527 12.6128 5.27454 14.5687 5.27454 16.5151C5.27454 16.9294 5.42871 17.074 5.85267 17.074C8.02064 17.074 10.1886 17.074 12.3566 17.074C12.7805 17.074 12.9347 16.9102 12.9443 16.4766C12.954 16.0526 12.9443 15.6383 12.9443 15.2143C12.954 14.8096 13.1467 14.6073 13.5417 14.6073C17.155 14.6073 20.7683 14.6073 24.3816 14.6073C24.7574 14.6073 24.9501 14.8096 24.9693 15.1854C24.979 15.301 24.9693 15.4263 24.9693 15.5419C24.9693 18.9529 24.9693 22.3542 24.9693 25.7651C24.9693 26.0349 25.0271 26.1409 25.3258 26.1409C28.1394 26.1312 30.9626 26.1312 33.7761 26.1312C33.8725 26.1312 33.9592 26.1216 34.1133 26.1023C34.1133 25.9482 34.1133 25.8133 34.1133 25.6687C34.1133 22.8167 34.1133 19.9646 34.1133 17.1029C34.1133 16.968 34.1133 16.8331 34.123 16.7078C34.1519 16.4091 34.335 16.2549 34.624 16.2357C34.9227 16.2164 35.1058 16.3706 35.1829 16.65C35.2214 16.7849 35.2118 16.9391 35.2118 17.0836C35.2118 22.4216 35.2118 27.75 35.2118 33.088C35.2118 33.2325 35.2118 33.3771 35.2118 33.5698C35.9923 33.5312 36.7438 33.5312 37.1003 34.3888C37.1003 34.9958 37.1003 35.5932 37.1003 36.2003C36.8305 36.47 36.5704 36.7302 36.3006 37C34.5662 37 32.8318 37 31.0975 37C30.8373 36.8266 30.6446 36.6146 30.7602 36.2773C30.8758 35.9497 31.1553 35.9112 31.4636 35.9112C32.7837 35.9208 34.1133 35.9112 35.4334 35.9112C35.6068 35.9112 35.7899 35.9112 35.9826 35.9112C35.9826 35.4776 35.9826 35.0922 35.9826 34.6971C24.3719 34.6971 12.7805 34.6971 1.19876 34.6971C1.19876 35.1115 1.19876 35.5065 1.19876 35.9112C1.38184 35.9112 1.536 35.9112 1.69017 35.9112C10.6415 35.9112 19.5831 35.9112 28.5344 35.9112C28.8428 35.9112 29.1222 35.9401 29.2475 36.2773C29.3727 36.6146 29.1704 36.8266 28.9199 37C19.5735 37 10.2271 37 0.880794 37C0.611002 36.7302 0.350846 36.47 0.0810547 36.2003C0.0810547 35.5932 0.0810547 34.9958 0.0810547 34.3888C0.437565 33.5505 1.16022 33.512 1.9696 33.5794C1.9696 33.406 1.9696 33.2807 1.9696 33.1555C1.9696 31.9992 1.95996 30.843 1.9696 29.6867C1.97923 27.644 3.45345 26.1505 5.49616 26.1312C7.61595 26.112 9.73574 26.1312 11.8555 26.1312C11.9423 26.1312 12.0482 26.112 12.1061 26.1505C12.2699 26.2854 12.5107 26.4396 12.53 26.613C12.5493 26.7865 12.3758 27.0177 12.2313 27.1526C12.1253 27.2393 11.9133 27.2297 11.7495 27.2297C9.70684 27.2297 7.65449 27.2297 5.61178 27.2297C4.07012 27.2297 3.0873 28.2125 3.07767 29.7542C3.06803 30.9682 3.07767 32.1823 3.07767 33.406C3.07767 33.4445 3.0873 33.4734 3.10658 33.5409C13.4261 33.5409 23.7456 33.5409 34.0941 33.5409C34.0941 31.4404 34.0941 29.3495 34.0941 27.2297C33.9206 27.2297 33.7665 27.2297 33.6123 27.2297C27.3782 27.2297 21.1344 27.2297 14.9003 27.2297C14.7269 27.2297 14.5342 27.22 14.3704 27.1719C14.1102 27.0852 14.0042 26.8732 14.0331 26.6034C14.062 26.3432 14.2162 26.1891 14.4764 26.1505C14.6113 26.1312 14.7365 26.1312 14.8714 26.1312C17.7139 26.1312 20.5563 26.1312 23.3988 26.1312C23.5433 26.1312 23.6878 26.1312 23.8613 26.1312C23.8613 22.6432 23.8613 19.1841 23.8613 15.6961C20.6045 15.6961 17.3477 15.6961 14.0428 15.6961C14.0428 15.9177 14.0428 16.1393 14.0428 16.3706C14.0428 17.4016 13.6284 17.9315 12.5878 18.182C12.5878 18.394 12.5878 18.6156 12.5878 18.8469C12.5686 19.8393 11.9133 20.4945 10.9305 20.5138C10.5258 20.5234 10.1115 20.5138 9.65866 20.5138C9.65866 20.668 9.65866 20.8029 9.65866 20.9281C9.65866 21.9302 9.65866 22.9227 9.65866 23.9247C9.65866 24.3583 9.46595 24.5896 9.11907 24.5799C8.78184 24.5799 8.57949 24.3391 8.57949 23.9151C8.57949 22.7974 8.57949 21.6797 8.57949 20.5138C8.1748 20.5138 7.79902 20.5138 7.41361 20.5138C6.2959 20.5138 5.6696 19.8875 5.6696 18.7698C5.6696 18.6638 5.65996 18.5482 5.6696 18.4422C5.67923 18.2591 5.64069 18.1724 5.42871 18.1242C4.69642 17.9508 4.21465 17.4208 4.21465 16.6596C4.19538 14.5398 4.15684 12.4201 4.25319 10.3003C4.34954 8.15156 6.06465 6.33047 8.1748 5.92578C8.30006 5.89687 8.42532 5.8776 8.56022 5.8487C8.56022 4.65391 8.56022 3.47839 8.56022 2.24505C8.34824 2.24505 8.1459 2.25469 7.95319 2.24505C7.63522 2.22578 7.42324 2.0138 7.42324 1.72474C7.41361 1.43568 7.61595 1.17552 7.92428 1.17552C8.73366 1.15625 9.5334 1.15625 10.3428 1.17552C10.6511 1.18516 10.8534 1.44531 10.8245 1.74401C10.7956 2.05234 10.6318 2.22578 10.3139 2.24505C10.1115 2.25469 9.90918 2.24505 9.68756 2.24505C9.68756 2.66901 9.68756 3.06406 9.68756 3.46875C14.8811 3.46875 20.0553 3.46875 25.2584 3.46875C25.2584 2.68828 25.2584 1.90781 25.2584 1.09844C24.9308 1.07917 24.555 1.10807 24.4394 0.664845C24.3527 0.346876 24.5646 0.173437 24.7574 0C26.8386 0.0289062 28.9391 0.0289065 31.03 0.0289065ZM9.66829 5.8487C14.8907 5.8487 20.0553 5.8487 25.2488 5.8487C25.2488 5.43438 25.2488 5.04896 25.2488 4.65391C20.0456 4.65391 14.8618 4.65391 9.66829 4.65391C9.66829 5.06823 9.66829 5.44401 9.66829 5.8487ZM26.4146 1.12734C26.4146 2.71719 26.4146 4.27813 26.4146 5.8487C27.4071 5.8487 28.3803 5.8487 29.3438 5.8487C29.3438 4.25885 29.3438 2.68828 29.3438 1.12734C28.3514 1.12734 27.3975 1.12734 26.4146 1.12734ZM11.4701 18.2302C9.88027 18.2302 8.32897 18.2302 6.74876 18.2302C6.74876 18.4807 6.74876 18.712 6.74876 18.9432C6.74876 19.2516 6.9222 19.4346 7.21126 19.4346C8.48314 19.4443 9.76465 19.4443 11.0365 19.4346C11.2774 19.4346 11.4508 19.2805 11.4701 19.0299C11.4798 18.7698 11.4701 18.5 11.4701 18.2302Z" fill="#D2B48C"/>
<path d="M29.5559 24.6185C28.4478 24.6185 27.5614 23.7417 27.5614 22.6336C27.5614 21.5063 28.4478 20.6198 29.5752 20.6295C30.6832 20.6391 31.5601 21.5159 31.5504 22.6336C31.5408 23.7321 30.664 24.6185 29.5559 24.6185ZM30.4616 22.6047C30.4616 22.1037 30.0377 21.699 29.5366 21.7086C29.0452 21.7183 28.6502 22.123 28.6502 22.6144C28.6502 23.1154 29.0549 23.5297 29.5559 23.5297C30.0569 23.5201 30.4616 23.1154 30.4616 22.6047Z" fill="#D2B48C"/>
<path d="M27.5516 16.727C27.5516 15.619 28.4573 14.7229 29.5558 14.7325C30.6542 14.7325 31.5503 15.6286 31.5503 16.7367C31.5503 17.864 30.6542 18.7505 29.5365 18.7408C28.4284 18.7312 27.5516 17.8351 27.5516 16.727ZM28.6404 16.7367C28.6404 17.2377 29.0547 17.6617 29.5558 17.6617C30.0568 17.6617 30.4615 17.2377 30.4615 16.7367C30.4519 16.2356 30.0664 15.8502 29.5654 15.8502C29.0547 15.8309 28.65 16.226 28.6404 16.7367Z" fill="#D2B48C"/>
<path d="M19.5156 10.8109C19.5156 11.0036 19.5349 11.1963 19.5156 11.389C19.4867 11.707 19.3037 11.8997 18.9761 11.9189C18.6966 11.9382 18.4558 11.7166 18.4365 11.3986C18.4172 10.9939 18.4172 10.5796 18.4365 10.1749C18.4558 9.86659 18.7063 9.64498 18.9857 9.66425C19.2844 9.69316 19.4771 9.86659 19.5156 10.1653C19.5349 10.3773 19.5156 10.5989 19.5156 10.8109Z" fill="#D2B48C"/>
<path d="M14.8427 10.7819C14.8427 10.9842 14.8523 11.1962 14.8427 11.3986C14.8234 11.7069 14.5825 11.9189 14.3031 11.9189C14.014 11.9189 13.7828 11.7069 13.7731 11.3889C13.7635 10.9843 13.7538 10.5699 13.7731 10.1652C13.7828 9.84727 13.9947 9.67384 14.2934 9.6642C14.5921 9.65456 14.8041 9.828 14.8427 10.1363C14.8619 10.3483 14.833 10.5699 14.8427 10.7819C14.833 10.7819 14.833 10.7819 14.8427 10.7819Z" fill="#D2B48C"/>
<path d="M20.7684 10.7626C20.7684 10.5699 20.7588 10.3772 20.7684 10.1845C20.7877 9.87619 21.019 9.64494 21.2984 9.66421C21.5971 9.68348 21.8091 9.84728 21.8283 10.1556C21.8572 10.5892 21.8572 11.0228 21.8283 11.4564C21.8091 11.7551 21.5778 11.9285 21.2791 11.9189C20.9804 11.9093 20.7877 11.7358 20.7684 11.4179C20.7588 11.1962 20.7684 10.9746 20.7684 10.7626Z" fill="#D2B48C"/>
<path d="M17.1646 10.7916C17.1646 10.994 17.1742 11.206 17.1646 11.4083C17.1453 11.7263 16.9526 11.8997 16.6539 11.9093C16.3456 11.9286 16.124 11.7455 16.1047 11.4468C16.0662 11.0036 16.0662 10.5508 16.1047 10.1172C16.1336 9.81846 16.3649 9.64502 16.6636 9.6643C16.9622 9.68357 17.155 9.86664 17.1646 10.175C17.1742 10.387 17.1646 10.5893 17.1646 10.7916Z" fill="#D2B48C"/>
<path d="M24.1795 10.8012C24.1795 10.9939 24.1891 11.1866 24.1795 11.3793C24.1602 11.6973 23.9482 11.9189 23.6592 11.9093C23.3508 11.8996 23.1388 11.7358 23.1099 11.4371C23.081 11.0035 23.081 10.57 23.1099 10.1364C23.1292 9.83766 23.3508 9.66422 23.6495 9.65459C23.9289 9.64495 24.1602 9.8762 24.1795 10.1845C24.1891 10.3965 24.1795 10.5989 24.1795 10.8012Z" fill="#D2B48C"/>
</svg>
