<svg width="51" height="72" viewBox="0 0 51 72" fill="none" xmlns="http://www.w3.org/2000/svg">
<path fill-rule="evenodd" clip-rule="evenodd" d="M47.3572 49.9687C49.1219 49.9687 48.6182 52.8197 48.6182 55.2526C48.6182 57.5531 46.0641 56.8034 45.0187 55.7657C42.9465 53.7093 44.3619 49.9687 47.3572 49.9687ZM23.8438 0.60498H25.8287C27.6427 0.733741 29.4468 1.21857 31.1543 2.08507C33.6043 3.32867 33.8825 4.06395 35.1294 5.09256C35.7216 5.58116 37.5481 5.72717 39.1937 8.01152C40.2369 9.45975 40.6319 11.1143 40.6319 13.5369V22.2972C40.6319 23.9068 40.4406 25.1559 39.7356 26.1354C39.1262 26.9822 38.0058 27.9727 36.8489 27.9984C36.726 29.4645 35.585 31.6244 34.8701 32.5699C34.1351 33.542 32.5306 35.3425 31.3846 35.6462V36.3415C32.5328 36.4363 34.0522 36.8308 35.1863 37.018C38.4495 37.5567 42.4688 37.9601 44.2747 41.3475C45.2959 41.1113 46.8637 40.2873 47.4972 40.2349V47.6047C49.5252 47.6047 51 49.3283 51 51.3591V55.3918C51 57.4611 49.5202 59.1013 47.4972 59.1462C47.4972 63.8262 47.8697 63.2406 46.3175 63.8154C41.2809 65.6806 36.0541 67.8711 31.0834 69.6934C30.0725 70.0639 29.276 70.4129 28.2499 70.7746C24.199 72.2016 26.8475 72.2343 19.9166 69.6934C14.9515 67.8732 9.62094 65.6654 4.58127 63.777C3.14007 63.2368 3.50281 63.7766 3.50281 59.1462C1.47976 59.1013 0 57.4611 0 55.3918V51.3591C0 49.3283 1.4748 47.6047 3.50281 47.6047V40.2349C4.14886 40.2883 5.71732 41.1144 6.72529 41.3475C7.25087 40.3615 7.99737 39.6814 8.8847 39.0408C9.79701 38.3822 10.7525 37.9875 12.0183 37.7013L19.6154 36.3415V35.6462C17.5278 35.093 14.3727 30.6399 14.1511 27.9984C12.9942 27.9727 11.8738 26.9822 11.2644 26.1354C9.95389 24.3147 10.3681 19.3786 10.3681 16.596C10.3681 11.5199 11.1843 8.50423 14.4532 4.93736L15.9103 3.60228C18.2867 1.83363 21.0392 0.802885 23.8438 0.60498ZM3.78297 56.7822C1.85607 56.7822 2.38182 54.3236 2.38182 51.4982C2.38182 47.7027 9.4389 51.5229 6.11134 55.6168C5.66801 56.1622 4.40487 56.7822 3.78297 56.7822ZM41.6126 53.306C41.6126 55.5954 43.3935 58.1918 45.1154 58.5899V61.7881C43.213 62.2281 28.6495 68.3041 26.761 68.7407V50.6639C27.5086 50.491 28.3111 50.0989 29.0192 49.8458C30.989 49.1418 44.3376 43.7755 45.1154 43.7113V48.1609C44.1772 48.3779 43.2148 49.3172 42.7029 50.0774C42.092 50.9846 41.6126 52.1179 41.6126 53.306ZM5.88463 43.7113C6.63411 43.7732 18.0744 48.3838 19.5629 48.9082C20.7369 49.3218 23.329 50.4535 24.239 50.6639V68.7407C23.6689 68.6937 22.5016 68.1197 21.9763 67.9272C21.1339 67.6183 20.4895 67.3529 19.6572 67.0307C18.0924 66.4248 16.5954 65.8757 15.1119 65.2842L5.88463 61.7881V58.5899C8.78954 57.9182 11.2303 52.1175 7.30813 48.9731C6.86496 48.6178 6.49742 48.3027 5.88463 48.1609V43.7113ZM25.4656 42.4255L30.0181 46.8753L25.5 48.5781L21.0165 46.9095L25.4656 42.4255ZM30.9643 46.4923L33.4669 39.1161L38.468 40.0186C40.0876 40.3817 41.2665 41.1849 42.0329 42.3207C40.6288 42.6454 32.3185 46.1793 30.9643 46.4923ZM17.5137 39.1226L20.0165 46.4987C18.4537 46.1042 10.4168 42.6559 8.96711 42.3207C9.73347 41.1849 10.9124 40.3817 12.532 40.0186L17.5137 39.1226ZM29.7033 43.0161C29.2035 42.8836 27.6256 41.242 27.3215 40.7912L30.4038 38.5663C30.7823 38.5663 30.7902 38.6328 31.1045 38.7054C30.8784 39.1728 29.7463 42.5032 29.7033 43.0161ZM19.8955 38.7054C20.7405 38.5047 20.281 38.3309 22.0372 39.6391C22.5951 40.0548 23.0874 40.4808 23.6785 40.7912C23.3651 41.2556 21.7941 42.8842 21.2967 43.0161C21.2537 42.5032 20.1216 39.1728 19.8955 38.7054ZM22.4175 36.8977C24.9104 37.4741 26.0896 37.4741 28.5825 36.8977C28.3723 37.1824 25.9425 38.9675 25.5 39.2617C25.0575 38.9675 22.6277 37.1824 22.4175 36.8977ZM16.2527 24.9391V20.0723C17.6375 20.0723 19.8724 19.288 20.7976 18.7427C23.5496 17.1212 23.2039 16.8668 24.239 16.1788C24.5534 16.3879 25.335 17.2342 26.1978 17.8501C28.6068 19.5695 31.4583 20.2115 34.7473 20.2115C34.7473 25.2454 35.294 28.3242 32.3876 31.9139C31.8496 32.5782 30.4998 33.5788 29.7078 33.982C24.2744 36.7487 16.2527 33.6932 16.2527 24.9391ZM37.1291 25.3563V21.741C37.5287 21.9509 37.521 21.9315 37.7816 22.3449C38.3785 23.2914 38.2269 24.7798 37.1291 25.3563ZM12.8901 23.8268C12.8901 23.1513 12.8335 22.9552 13.2184 22.3449C13.479 21.9315 13.4713 21.9509 13.8709 21.741V25.3563C13.4713 25.1466 13.479 25.166 13.2184 24.7526C13.0443 24.4767 12.8901 24.1996 12.8901 23.8268ZM13.8709 19.0989C13.5327 19.26 13.2328 19.3362 12.8901 19.5161C12.8901 14.986 12.2818 11.6387 15.1099 7.81395C19.4631 1.92659 28.113 1.40185 32.892 6.20066C34.3657 7.68026 33.6183 7.12416 35.1516 7.71245C35.8668 7.98689 36.7382 8.66124 37.1892 9.3057C37.7584 10.1195 38.1164 10.8154 38.1149 12.1414C38.1121 14.5995 38.1099 17.0578 38.1099 19.5161C37.7672 19.3362 37.4673 19.26 37.1291 19.0989C37.1291 17.4153 37.7541 17.7037 33.7664 17.7085C29.3867 17.7138 26.8374 15.9993 24.5192 12.5635C22.7113 13.765 21.5327 16.7623 16.7378 17.6336C13.9606 18.1381 13.8709 16.7275 13.8709 19.0989Z" fill="#D2B48C"/>
</svg>
