<svg width="39" height="45" viewBox="0 0 39 45" fill="none" xmlns="http://www.w3.org/2000/svg">
<path d="M28.0909 0.72229C28.2629 0.72229 28.4349 0.72229 28.6069 0.72229C28.8112 0.893332 29.037 1.05368 29.2197 1.24611C30.2196 2.2296 31.1979 3.22377 32.1977 4.19657C32.359 4.35693 32.574 4.4959 32.7998 4.58142C34.4769 5.22282 36.1648 5.84285 37.8419 6.47357C38.53 6.73013 38.6375 6.89048 38.6375 7.60672C38.6375 19.5583 38.6375 31.5205 38.6483 43.472C38.6483 43.9317 38.5407 44.2845 38.1322 44.509C25.7687 44.509 13.4052 44.509 1.05242 44.509C0.665388 44.2845 0.536377 43.9531 0.536377 43.5148C0.547128 31.5312 0.547128 19.5476 0.547128 7.56396C0.547128 6.90117 0.665387 6.73013 1.29969 6.49495C2.6973 5.97113 4.09492 5.41525 5.51404 4.93419C6.34185 4.64556 7.04066 4.23933 7.64271 3.57655C8.37377 2.77479 9.16934 2.03717 9.9434 1.27818C10.1477 1.07506 10.3734 0.914712 10.5885 0.72229C10.7605 0.72229 10.9325 0.72229 11.1045 0.72229C11.5238 1.0323 11.9323 1.3637 12.3731 1.64164C15.4801 3.51241 18.8451 4.01484 22.3929 3.36275C24.5001 2.95652 26.4245 2.112 28.0909 0.72229ZM6.80414 6.0032C5.33127 6.55909 3.8799 7.11497 2.41778 7.6281C2.0845 7.74569 2.00925 7.90604 2.00925 8.24812C2.02 19.6865 2.02 31.1356 2.02 42.574C2.02 42.7237 2.02 42.8734 2.02 43.0123C7.67496 43.0123 13.2547 43.0123 18.8236 43.0123C18.8236 32.3864 18.8236 21.8032 18.8236 11.1665C18.6946 11.2734 18.6194 11.3269 18.5441 11.4017C16.953 12.8128 15.3618 14.2239 13.7707 15.635C13.0827 16.2443 12.6741 16.1802 12.2118 15.3891C10.4917 12.3959 8.7823 9.41335 7.06216 6.42012C6.97616 6.29183 6.89015 6.16355 6.80414 6.0032ZM37.1861 43.0337C37.1861 42.8413 37.1861 42.6809 37.1861 42.5313C37.1861 31.1143 37.1861 19.7079 37.1861 8.29088C37.1861 8.20536 37.2076 8.10915 37.1754 8.03432C37.1216 7.91673 37.0679 7.76707 36.9604 7.72431C35.4445 7.14704 33.9286 6.58047 32.3805 6.0032C32.2837 6.16355 32.1977 6.29183 32.1225 6.42012C30.4023 9.41335 28.6929 12.3959 26.9728 15.3891C26.5213 16.1802 26.1127 16.2443 25.4139 15.6243C23.8228 14.2132 22.2317 12.8021 20.6405 11.391C20.5653 11.3162 20.4685 11.2627 20.3503 11.1772C20.3503 21.8246 20.3503 32.4078 20.3503 43.023C25.973 43.0337 31.5419 43.0337 37.1861 43.0337ZM8.07275 5.2442C9.77139 8.21605 11.47 11.1772 13.1902 14.1704C14.9426 12.6097 16.6842 11.081 18.4366 9.52025C15.6414 7.37154 12.8891 5.26558 10.1584 3.18101C9.44886 3.87587 8.7823 4.53866 8.07275 5.2442ZM26.0052 14.1598C27.7254 11.1665 29.424 8.20536 31.0904 5.28696C30.3808 4.58142 29.6928 3.90794 28.9832 3.20239C26.274 5.27627 23.5325 7.38222 20.748 9.50956C22.5219 11.081 24.2528 12.6097 26.0052 14.1598ZM25.4784 4.03622C21.5544 5.44732 17.641 5.43663 13.6525 3.9507C13.76 4.0576 13.7815 4.08967 13.8137 4.12174C15.6629 5.53284 17.5013 6.94393 19.3397 8.36572C19.5439 8.52607 19.6622 8.494 19.8557 8.35503C20.8986 7.54258 21.9629 6.74082 23.0057 5.92837C23.8335 5.29765 24.6614 4.66694 25.4784 4.03622Z" fill="white"/>
</svg>
