<svg width="52" height="73" viewBox="0 0 52 73" fill="none" xmlns="http://www.w3.org/2000/svg">
<path d="M37.7356 60.0024C29.4111 60.0024 21.0778 60.0024 12.7532 60.0024C12.2641 59.7422 12.0806 59.3347 12.1505 58.7884C12.3514 57.115 12.5436 55.4328 12.727 53.7593C12.8056 53.0483 12.8755 52.3373 12.9541 51.6003C12.7532 51.5656 12.596 51.5309 12.4388 51.5049C10.9276 51.2708 9.42516 51.054 7.91399 50.8112C7.27633 50.7072 6.98807 50.291 7.09289 49.6667C7.76549 45.6608 8.4381 41.6461 9.1107 37.6402C9.80077 33.5302 10.4996 29.4202 11.1809 25.3102C11.4779 23.524 12.2204 21.9806 13.6093 20.7927C13.9674 20.4892 14.2906 20.1944 14.5177 19.7696C14.675 19.4747 14.9457 19.1973 15.234 19.0325C17.2169 17.8706 19.2259 16.7434 21.2175 15.6075C23.8992 15.6075 26.5721 15.6075 29.2538 15.6075C29.5159 15.7289 29.7867 15.8243 30.0312 15.963C31.6909 16.9255 33.3506 17.8706 34.9753 18.8765C35.4121 19.1453 35.7265 19.6135 36.0847 19.995C36.2506 20.1684 36.3729 20.3939 36.5564 20.5413C37.8928 21.5991 38.7925 22.9344 39.1157 24.5992C39.4477 26.2814 39.7097 27.9809 39.9892 29.6717C40.592 33.2441 41.186 36.8078 41.7887 40.3802C42.304 43.4844 42.8282 46.5799 43.3348 49.684C43.4396 50.3344 43.1688 50.7072 42.5137 50.8112C41.5965 50.9673 40.6793 51.0974 39.7621 51.2361C39.0197 51.3488 38.2772 51.4616 37.5085 51.583C37.7705 53.9674 38.0151 56.3086 38.3034 58.641C38.382 59.2393 38.2684 59.6902 37.7356 60.0024ZM36.4865 58.2508C36.1458 55.1727 35.8051 52.1379 35.4645 49.0771C35.2723 49.0771 35.1151 49.0771 34.9491 49.0771C33.5253 49.0771 32.0927 49.0771 30.6689 49.0771C30.0138 49.0771 29.6294 48.7649 29.6207 48.236C29.612 47.6897 30.005 47.3516 30.6776 47.3516C32.0491 47.3516 33.4117 47.3516 34.7831 47.3516C34.9404 47.3516 35.0889 47.3516 35.2723 47.3516C35.0015 44.9237 34.7395 42.5566 34.4687 40.1894C34.3027 38.7241 34.1367 37.2674 33.997 35.802C33.9446 35.2384 34.294 34.8395 34.7919 34.7962C35.2723 34.7528 35.6654 35.117 35.7353 35.6806C36.0585 38.5593 36.3817 41.4467 36.7049 44.3341C36.7835 45.0018 36.8621 45.6694 36.9494 46.3718C38.3034 46.1637 39.6049 45.9729 40.9326 45.7735C40.6094 43.8572 40.3037 41.993 39.9892 40.1287C39.3953 36.5563 38.8013 32.984 38.1898 29.4202C37.919 27.8161 37.6482 26.2033 37.3163 24.6079C37.1416 23.7842 36.6874 23.0818 36.2419 22.6396C35.316 23.4287 34.425 24.1917 33.4816 24.9894C33.8135 25.2409 34.0232 25.3709 34.2066 25.5357C34.4687 25.7611 34.7569 25.9779 34.9578 26.2554C35.875 27.504 35.5868 29.03 34.259 30.0098C31.4027 32.1255 28.5463 34.2499 25.6812 36.3482C24.7902 36.9986 24.3709 37.8396 24.3709 38.9408C24.3796 45.2272 24.3796 51.5136 24.3796 57.8C24.3796 57.956 24.3796 58.1034 24.3796 58.2769C28.424 58.2508 32.4247 58.2508 36.4865 58.2508ZM13.5481 46.3631C13.7228 44.7677 13.8975 43.2242 14.0722 41.6722C14.2993 39.6605 14.5177 37.6575 14.7623 35.6459C14.8322 35.0736 15.234 34.7355 15.7144 34.7875C16.2211 34.8482 16.5617 35.2731 16.5006 35.854C16.2997 37.7616 16.0726 39.6692 15.8629 41.5768C15.6533 43.4844 15.4349 45.392 15.2165 47.3429C15.4 47.3429 15.5572 47.3429 15.7144 47.3429C17.112 47.3429 18.5097 47.3342 19.9073 47.3429C20.4751 47.3429 20.8681 47.6984 20.8769 48.184C20.8943 48.6869 20.4838 49.0597 19.8985 49.0684C19.0949 49.0771 18.3 49.0684 17.4964 49.0684C16.684 49.0684 15.8717 49.0684 15.0244 49.0684C14.6837 52.1379 14.343 55.1727 14.0023 58.2335C16.8762 58.2335 19.7413 58.2335 22.6326 58.2335C22.6326 58.0341 22.6326 57.8693 22.6326 57.6959C22.6326 51.4356 22.6326 45.1839 22.6326 38.9235C22.6326 38.0044 22.7899 37.146 23.2703 36.3569C23.4362 36.0881 23.6284 35.8453 23.8206 35.5852C23.5585 35.3858 23.3314 35.2124 23.0956 35.0476C20.807 33.3568 18.5097 31.6747 16.2298 29.9838C14.6138 28.7873 14.5963 26.819 16.1949 25.5877C16.422 25.4143 16.6491 25.2409 16.9985 24.9721C16.0638 24.1657 15.1729 23.3853 14.2819 22.6136C13.7578 23.1425 13.2773 23.9229 13.1201 24.7726C12.7183 26.9577 12.3427 29.1514 11.9758 31.3365C11.3381 35.0736 10.718 38.8194 10.089 42.5566C9.91433 43.6144 9.73963 44.6809 9.55619 45.7648C10.8927 45.9729 12.1855 46.1637 13.5481 46.3631ZM25.192 32.6284C25.2269 32.6284 25.2619 32.6198 25.2968 32.6198C26.5984 28.7005 27.9086 24.79 29.2276 20.8361C26.5547 20.8361 23.9341 20.8361 21.2612 20.8361C22.5715 24.79 23.8817 28.7092 25.192 32.6284ZM31.4813 18.8331C31.3153 19.6135 31.2105 20.3765 30.9746 21.0962C29.708 24.9634 28.4065 28.8133 27.1225 32.6718C27.0788 32.8105 27.0351 32.9493 26.9565 33.2007C29.1665 31.5706 31.2716 30.0272 33.368 28.4664C33.8485 28.1023 33.8397 27.4693 33.3593 27.0878C32.9226 26.7323 32.4509 26.4114 31.9966 26.0733C31.1755 25.4576 31.1406 24.9981 31.8656 24.2784C32.678 23.472 33.4991 22.6656 34.3027 21.8592C34.7482 21.4084 34.7395 20.784 34.2416 20.4806C33.3244 19.8909 32.381 19.3534 31.4813 18.8331ZM19.0949 18.7811C18.1952 19.31 17.3392 19.8042 16.4919 20.2985C15.7319 20.7407 15.6533 21.3303 16.2647 21.9459C17.0771 22.7523 17.8895 23.5587 18.7018 24.3651C19.3046 24.9634 19.2609 25.475 18.5795 25.9866C18.1515 26.3074 17.7148 26.6282 17.2867 26.949C16.5879 27.4693 16.5879 28.0849 17.2867 28.6052C19.2347 30.0445 21.1913 31.4839 23.1393 32.9146C23.2353 32.984 23.3402 33.0446 23.5061 33.1574C23.4362 32.9493 23.4013 32.8279 23.3576 32.7065C22.4579 30.0012 21.5145 27.3045 20.6585 24.5732C20.0732 22.683 19.1298 20.8881 19.0949 18.7811ZM29.612 19.0585C29.612 18.8678 29.612 18.703 29.612 18.547C29.612 17.6452 29.3062 17.3417 28.4153 17.3417C26.2577 17.3417 24.1089 17.3417 21.9513 17.3417C21.2175 17.3417 20.8856 17.6799 20.8769 18.3996C20.8769 18.6077 20.8769 18.8244 20.8769 19.0585C23.7944 19.0585 26.6682 19.0585 29.612 19.0585ZM13.356 48.1059C11.9845 47.8978 10.6481 47.6984 9.2592 47.4903C9.16311 48.0886 9.06702 48.6435 8.97967 49.2158C10.4122 49.4326 11.7662 49.632 13.1638 49.8401C13.2162 49.2678 13.2773 48.7302 13.356 48.1059ZM41.2034 47.4903C39.8145 47.6984 38.4781 47.9065 37.1154 48.1059C37.1853 48.7216 37.2552 49.2765 37.325 49.8488C38.7314 49.632 40.1028 49.4239 41.5004 49.2158C41.3956 48.6262 41.3082 48.0886 41.2034 47.4903Z" fill="white"/>
<path d="M27.8562 43.0162C27.8475 43.4757 27.4544 43.8659 26.9914 43.8746C26.5023 43.8746 26.1092 43.467 26.1267 42.9815C26.1441 42.5133 26.5372 42.1404 27.0089 42.1491C27.4631 42.1577 27.8649 42.5566 27.8562 43.0162Z" fill="white"/>
<path d="M27.0002 49.0685C26.5372 49.0772 26.1354 48.6956 26.1179 48.2361C26.1005 47.7678 26.4761 47.369 26.9478 47.3516C27.4282 47.3343 27.8562 47.7331 27.8562 48.2101C27.8562 48.661 27.4631 49.0598 27.0002 49.0685Z" fill="white"/>
<path d="M27.8562 53.4212C27.8475 53.8807 27.4544 54.2709 26.9914 54.2796C26.5023 54.2796 26.1092 53.8721 26.1267 53.3865C26.1441 52.9183 26.5372 52.5454 27.0089 52.5541C27.4631 52.5628 27.8649 52.9616 27.8562 53.4212Z" fill="white"/>
</svg>
